<svg id="Capa_1" enable-background="new 0 0 512 512" height="512" viewBox="0 0 512 512" width="512" xmlns="http://www.w3.org/2000/svg"><g><g><g><path d="m281.98 312.529-23.872-220.276c-.273-2.521-3.941-2.521-4.214 0l-23.872 220.276 25.979 42.657z" fill="#017b4e"/></g><g><path d="m247.77 341.672 18.684-172.403-8.346-77.015c-.273-2.521-3.941-2.521-4.214 0l-23.872 220.276z" fill="#026841"/></g><g><g><path d="m193.682 332.097c18.902 19.207 32.396 38.541 42.026 56.41l20.292-33.32-114.69-188.32c-1.319-2.166-4.639-.607-3.814 1.791z" fill="#09a76d"/></g><g><path d="m193.682 332.097c15.8 16.055 27.819 32.197 36.963 47.499l-52.129-151.638-37.205-61.091c-1.319-2.166-4.639-.607-3.814 1.791z" fill="#02905d"/></g><g><path d="m318.317 332.098c.001-.001.001-.001.002-.002l56.186-163.438c.824-2.398-2.495-3.957-3.814-1.791l-134.983 221.639c11.12 20.633 17.086 39.303 20.291 53.572 5.981-26.627 21.595-68.599 62.318-109.98z" fill="#09a76d"/></g><path d="m245.631 409.437c.091-.156.167-.316.261-.47l105.621-173.428 22.992-66.88c.824-2.398-2.495-3.957-3.814-1.791l-134.983 221.638c3.91 7.255 7.183 14.267 9.923 20.931z" fill="#02905d"/></g><g><g><path d="m502.518 367.067c-76.874-4.946-132.032 12.176-170.029 33.433-2.192 7.368-4.174 15.027-5.889 22.999-5.761 26.779-29.257 45.937-56.511 46.642l5.541 3.199c24.501 14.145 55.642 9.432 74.624-11.546 57.287-63.31 122.67-84.051 152.573-90.538 2.402-.521 2.144-4.031-.309-4.189z" fill="#09a76d"/><g><path d="m502.518 367.067c-76.874-4.946-132.032 12.176-170.029 33.433-2.192 7.368-4.174 15.027-5.889 22.999-.533 2.478-1.222 4.889-2.048 7.229 28.725-19.142 69.875-37.124 126.398-42.258 21.272-9.462 39.577-14.545 51.876-17.213 2.403-.522 2.145-4.032-.308-4.19z" fill="#02905d"/></g></g><path d="m185.401 423.499c-1.715-7.972-3.697-15.631-5.889-22.998-37.996-21.257-93.155-38.38-170.03-33.434-2.453.158-2.71 3.668-.309 4.189 29.903 6.487 95.286 27.228 152.573 90.538 18.982 20.978 50.124 25.691 74.624 11.546l5.541-3.199c-27.254-.705-50.749-19.864-56.51-46.642z" fill="#09a76d"/><path d="m238.837 469.987c-20.364 4.191-42.047-2.331-56.591-18.404-46.385-51.262-98.076-74.614-131.944-85.089-12.872-.499-26.464-.351-40.82.573-2.452.158-2.71 3.668-.309 4.189 29.903 6.487 95.286 27.228 152.573 90.538 18.982 20.978 50.124 25.691 74.624 11.546l5.541-3.199c-1.031-.026-2.056-.075-3.074-.154z" fill="#02905d"/></g><g><path d="m256.001 442.072c-9.242-41.142-41.474-118.908-153.785-174.527-2.195-1.087-4.182 1.818-2.37 3.466 22.399 20.375 67.877 70.311 85.555 152.488 5.87 27.287 30.152 46.676 58.063 46.676h8.828s-.173-10.821 3.709-28.103z" fill="#017b4e"/><path d="m252.324 468.251c-21.25-5.521-38.276-22.507-43.061-44.752-13.406-62.317-42.792-106.077-65.983-132.481-12.336-8.129-25.976-16.001-41.064-23.473-2.195-1.087-4.182 1.818-2.37 3.466 22.399 20.375 67.877 70.311 85.555 152.488 5.87 27.287 30.152 46.676 58.063 46.676h8.828s-.01-.666.032-1.924z" fill="#026841"/><g><path d="m252.292 470.175h16.245c27.911 0 52.193-19.389 58.063-46.676 17.678-82.177 63.155-132.114 85.555-152.488 1.812-1.648-.175-4.553-2.37-3.466-159.487 78.982-157.493 202.63-157.493 202.63z" fill="#017b4e"/></g><g><path d="m377.236 310.127c13.166-17.934 25.909-30.921 34.919-39.116 1.812-1.648-.175-4.553-2.37-3.466-159.488 78.982-157.493 202.63-157.493 202.63h16.245c1.752 0 3.49-.077 5.21-.227 3.139-26.976 19.415-99.01 103.489-159.821z" fill="#026841"/></g></g></g><g><path d="m325.233 31.711-25.6 55.14c-9.301 20.034 5.327 42.953 27.414 42.953 22.088 0 36.716-22.92 27.414-42.953l-25.6-55.14c-.716-1.543-2.911-1.543-3.628 0z" fill="#62dbfb"/></g><g><path d="m323.325 86.851 15.568-33.532-10.032-21.608c-.717-1.544-2.911-1.544-3.628 0l-25.601 55.14c-9.301 20.034 5.327 42.953 27.414 42.953 4.268 0 8.254-.864 11.846-2.389-14.996-6.369-23.071-24.402-15.567-40.564z" fill="#01d0fb"/></g><g><path d="m65.448 136.904-25.601 55.14c-9.301 20.034 5.327 42.953 27.414 42.953 22.088 0 36.716-22.92 27.414-42.953l-25.601-55.14c-.715-1.544-2.91-1.544-3.626 0z" fill="#62dbfb"/></g><g><path d="m63.539 192.044 15.568-33.532-10.032-21.608c-.717-1.544-2.911-1.544-3.628 0l-25.601 55.14c-9.301 20.034 5.327 42.953 27.414 42.953 4.268 0 8.254-.864 11.846-2.389-14.995-6.37-23.071-24.402-15.567-40.564z" fill="#01d0fb"/></g><g><g><path d="m190.046 82.711-19.15 41.246c-7.113 15.32 4.073 32.847 20.964 32.847 16.891 0 28.077-17.527 20.964-32.847l-19.15-41.246c-.717-1.543-2.911-1.543-3.628 0z" fill="#62dbfb"/></g><g><path d="m191.896 123.958 10.464-22.538-8.686-18.708c-.717-1.544-2.911-1.544-3.628 0l-19.15 41.246c-7.113 15.32 4.073 32.847 20.964 32.847 3.847 0 7.393-.917 10.5-2.503-10.532-5.375-15.957-18.514-10.464-30.344z" fill="#01d0fb"/></g></g><g><g><path d="m447.046 161.904-19.15 41.246c-7.113 15.32 4.073 32.847 20.964 32.847 16.891 0 28.077-17.527 20.964-32.847l-19.15-41.246c-.717-1.544-2.911-1.544-3.628 0z" fill="#62dbfb"/></g><g><path d="m448.896 203.15 10.464-22.538-8.686-18.708c-.717-1.544-2.911-1.544-3.628 0l-19.15 41.246c-7.113 15.32 4.073 32.847 20.964 32.847 3.847 0 7.393-.917 10.5-2.503-10.532-5.375-15.957-18.513-10.464-30.344z" fill="#01d0fb"/></g></g><g><path d="m511.972 368.463c-.362-4.835-4.135-8.569-8.972-8.88-11.034-.71-21.865-.972-32.486-.813.574-2.924-.632-6.034-3.289-7.749-3.479-2.245-8.122-1.244-10.368 2.236l-3.997 6.195c-13.437.836-26.5 2.383-39.128 4.669.849-3.318-.665-6.899-3.84-8.527-3.686-1.889-8.206-.435-10.096 3.251l-4.758 9.278c-2.763.682-5.51 1.389-8.227 2.145-14.528 4.045-28.385 9.17-41.507 15.284 4.175-11.461 8.848-22.078 13.813-31.857h9.206c4.142 0 7.5-3.358 7.5-7.5s-3.358-7.5-7.5-7.5h-1.018c5.982-10.203 12.193-19.314 18.314-27.385h10.254c4.142 0 7.5-3.358 7.5-7.5 0-3.523-2.433-6.471-5.709-7.276 7.168-8.179 13.882-14.833 19.538-19.977 3.583-3.259 4.199-8.531 1.466-12.535-2.735-4.005-7.869-5.351-12.211-3.201-9.994 4.949-19.584 10.189-28.756 15.703-.827-3.244-3.759-5.646-7.259-5.646-4.142 0-7.5 3.358-7.5 7.5v7.504c-9.871 6.591-19.199 13.523-27.95 20.784l46.606-135.572c1.601-4.655-.552-9.743-5.007-11.835-4.457-2.094-9.746-.5-12.305 3.704l-77.227 126.806-3.903-36.018 8.217-8.217c2.929-2.929 2.929-7.678 0-10.606-2.826-2.827-7.343-2.917-10.288-.288l-5.194-47.93 10.052-10.052c2.929-2.929 2.929-7.678 0-10.606-2.929-2.929-7.678-2.929-10.606 0l-1.52 1.52-8.25-76.129c-.531-4.893-4.642-8.583-9.563-8.583s-9.033 3.689-9.563 8.583l-8.25 76.129-1.52-1.52c-2.929-2.929-7.678-2.929-10.606 0-2.929 2.929-2.929 7.678 0 10.606l10.052 10.052-5.194 47.93c-2.944-2.629-7.461-2.539-10.288.288-2.929 2.929-2.929 7.677 0 10.606l8.217 8.217-3.904 36.018-77.227-126.806c-2.56-4.203-7.849-5.797-12.305-3.704-4.455 2.092-6.608 7.18-5.007 11.835v-.001l46.606 135.573c-7.807-6.479-16.07-12.698-24.771-18.644v-7.522c0-4.142-3.358-7.5-7.5-7.5-3.445 0-6.341 2.326-7.22 5.492-10.142-6.236-20.802-12.135-31.974-17.667-4.342-2.151-9.477-.805-12.212 3.2-2.733 4.003-2.117 9.275 1.466 12.535 6.392 5.814 14.132 13.549 22.357 23.249-3.093.925-5.349 3.789-5.349 7.183 0 4.142 3.358 7.5 7.5 7.5h9.447c5.979 8.124 11.999 17.249 17.775 27.402-3.988.174-7.171 3.452-7.171 7.483 0 4.142 3.358 7.5 7.5 7.5h7.608c4.373 8.885 8.497 18.43 12.222 28.658-1.538-.717-3.091-1.428-4.675-2.128-3.79-1.674-8.218.042-9.891 3.831-1.673 3.79.042 8.217 3.831 9.891 6.102 2.694 11.84 5.537 17.235 8.473 1.791 6.277 3.435 12.756 4.881 19.476 4.682 21.763 20.048 39.259 39.86 47.488-18.159 4.097-37.754-1.581-50.622-15.803-41.795-46.19-87.521-70.347-122.36-82.93 28.154.708 54.632 4.622 79.038 11.706 3.977 1.153 8.138-1.135 9.293-5.112 1.155-3.978-1.134-8.139-5.112-9.293-2.167-.629-4.351-1.232-6.548-1.813l-5.245-9.727c-1.967-3.646-6.517-5.008-10.161-3.042-3.076 1.658-4.517 5.155-3.715 8.397-13.363-2.613-27.209-4.403-41.491-5.368l-5.185-8.733c-2.114-3.561-6.714-4.734-10.278-2.62-3.562 2.115-4.734 6.716-2.62 10.278l.178.3c-11.137-.215-22.506.033-34.102.779-4.837.311-8.61 4.045-8.972 8.88-.362 4.837 2.815 9.095 7.555 10.123 7.384 1.602 16.364 3.94 26.482 7.334-1.499 1.812-2.13 4.296-1.47 6.739.904 3.343 3.93 5.545 7.236 5.545.647 0 1.306-.084 1.961-.262l13.853-3.744c12.371 5.35 25.721 12.192 39.479 20.932-3.313 2.126-4.442 6.486-2.493 9.966 1.375 2.455 3.924 3.837 6.551 3.837 1.24 0 2.499-.309 3.658-.958l6.167-3.453c15.728 11.323 31.728 25.229 47.179 42.304 13.052 14.425 31.472 22.036 50.12 22.035 11.597-.001 23.284-2.946 33.815-9.026l3.742-2.161h24.276l3.742 2.161c10.417 6.014 21.985 9.111 33.842 9.111 2.563 0 5.141-.145 7.722-.436 14.484-1.635 27.744-7.722 38.345-17.603 3.03-2.824 3.197-7.57.373-10.6s-7.57-3.197-10.6-.373c-12.799 11.929-30.805 16.373-47.483 12.626 19.809-8.23 35.172-25.724 39.853-47.485 1.445-6.717 3.079-13.208 4.869-19.481 16.041-8.701 33.454-15.702 52.032-20.876 23.644-6.584 49.211-10.227 76.353-10.894-28.568 10.346-65.213 28.739-100.878 61.239-3.062 2.79-3.282 7.534-.492 10.595 2.79 3.062 7.534 3.282 10.595.492 9.417-8.581 18.899-16.124 28.266-22.757l10.213 3.095c.725.22 1.457.324 2.178.324 3.218 0 6.193-2.088 7.175-5.327 1.036-3.42-.492-7.001-3.475-8.692 12.136-7.437 23.877-13.398 34.81-18.181l10.702 4.143c.89.345 1.806.508 2.706.508 3.007 0 5.845-1.822 6.996-4.794 1.006-2.599.461-5.412-1.176-7.433 11.637-4.086 21.751-6.745 29.612-8.451 4.734-1.029 7.911-5.286 7.549-10.124zm-200.201-40.39c-19.897 20.467-35.817 43.061-47.311 67.178-3.366 7.064-6.146 13.831-8.459 20.224-2.312-6.391-5.094-13.161-8.461-20.224-1.034-2.169-2.116-4.321-3.221-6.465l106.951-175.613zm-55.77-185.65 18.248 168.382-18.249 29.963-18.248-29.963zm-95.27 70.75 86.488 142.014-11.328 18.6c-9.852-16.136-21.787-31.443-35.661-45.714zm32.002 208.749c-12.859-59.775-39.809-102.848-63.269-130.793 22.429 13.759 42.142 29.228 58.854 46.205 19.077 19.381 34.32 40.772 45.304 63.582 7.529 15.634 12.006 29.824 14.672 41.229-1.859 8.645-2.737 15.66-3.146 20.53h-1.684c-24.315 0-45.651-17.14-50.731-40.753zm126.535 0c-5.08 23.613-26.416 40.752-50.731 40.752h-8.303c1.098-11.251 4.914-34.283 18.145-61.759 10.984-22.809 26.227-44.201 45.304-63.582 16.712-16.977 36.425-32.446 58.854-46.205-23.46 27.946-50.41 71.019-63.269 130.794z"/><path d="m327.048 137.304c13.433 0 25.556-6.907 32.43-18.477 2.116-3.561.944-8.163-2.617-10.279-3.563-2.116-8.164-.944-10.279 2.617-4.144 6.975-11.446 11.139-19.534 11.139-7.799 0-14.96-3.925-19.156-10.499s-4.74-14.722-1.456-21.796l20.612-44.395 17.429 37.541c1.745 3.757 6.205 5.387 9.961 3.645 3.757-1.745 5.389-6.204 3.645-9.961l-22.418-48.285c-1.551-3.341-4.934-5.5-8.617-5.5s-7.065 2.159-8.617 5.5l-25.601 55.14c-5.452 11.743-4.548 25.269 2.417 36.183 6.966 10.912 18.854 17.427 31.801 17.427z"/><path d="m67.262 242.497c12.947 0 24.835-6.516 31.8-17.429s7.869-24.439 2.417-36.182l-25.601-55.14c-1.551-3.341-4.934-5.5-8.618-5.5-3.683 0-7.064 2.159-8.615 5.5l-25.601 55.14c-5.452 11.743-4.548 25.269 2.417 36.183 6.966 10.912 18.854 17.428 31.801 17.428zm-20.612-47.295 20.612-44.395 20.612 44.395c3.284 7.074 2.74 15.222-1.456 21.796s-11.357 10.499-19.156 10.499-14.96-3.925-19.156-10.499-4.74-14.722-1.456-21.796z"/><path d="m191.86 164.304c10.506 0 20.153-5.287 25.805-14.143s6.386-19.833 1.961-29.362l-19.15-41.246c-1.551-3.341-4.934-5.5-8.618-5.5s-7.065 2.16-8.616 5.501l-19.15 41.244c-4.424 9.529-3.691 20.505 1.961 29.361 5.654 8.858 15.301 14.145 25.807 14.145zm-14.162-37.188 14.162-30.501 14.161 30.501c2.291 4.933 1.926 10.391-1 14.975s-7.723 7.213-13.161 7.213-10.235-2.629-13.162-7.213c-2.925-4.584-3.29-10.042-1-14.975z"/><path d="m448.86 243.497c10.506 0 20.153-5.287 25.805-14.143s6.386-19.833 1.961-29.362l-19.15-41.246c-1.551-3.341-4.934-5.5-8.618-5.5s-7.065 2.16-8.616 5.501l-19.15 41.244c-4.424 9.529-3.691 20.505 1.961 29.361 5.654 8.858 15.301 14.145 25.807 14.145zm-14.162-37.189 14.162-30.501 14.161 30.501c2.291 4.933 1.926 10.391-1 14.975s-7.723 7.213-13.161 7.213-10.235-2.629-13.162-7.213c-2.925-4.584-3.29-10.042-1-14.975z"/></g></g></svg>