<svg id="Capa_1" enable-background="new 0 0 512 512" height="512" viewBox="0 0 512 512" width="512" xmlns="http://www.w3.org/2000/svg"><g><g><path d="m191.961 253.784c-.002-.003-.004-.005-.006-.007-12.937-15.057-22.543-32.81-27.753-52.24-9.498-9.776-20.781-18.042-33.69-24.247-39.797-19.131-85.235-14.057-120.814 9.348-1.51.993-2.344 2.728-2.176 4.528 3.944 42.404 28.362 81.058 68.159 100.189 13.731 6.6 28.133 10.317 42.57 11.396 16.047-14.606 37.376-23.51 60.784-23.51 3.306 0 6.568.183 9.782.529-.018-.74-.028-1.481-.028-2.225 0-8.226 1.111-16.189 3.172-23.761z" fill="#09a76d"/><g><path d="m155.918 282.23c-20.066 1.372-40.556-2.211-59.738-11.432-38.007-18.27-61.972-54.35-67.488-94.494-6.565 2.896-12.926 6.341-18.994 10.333-1.51.993-2.344 2.728-2.176 4.528 3.944 42.404 28.362 81.058 68.159 100.189 13.731 6.6 28.133 10.317 42.57 11.396 10.569-9.62 23.431-16.762 37.667-20.52z" fill="#02905d"/></g></g><g><path d="m502.774 210.688c-27.937-18.378-63.616-22.362-94.866-7.34-19.736 9.487-34.647 25.092-43.742 43.688 3.419 9.531 5.287 19.8 5.287 30.508 0 1.656-.048 3.302-.136 4.936 13.484 3.713 25.702 10.473 35.873 19.493 15.393.865 31.073-1.993 45.773-9.06 31.25-15.022 50.423-45.374 53.52-78.67.131-1.413-.524-2.776-1.709-3.555z" fill="#09a76d"/><path d="m502.774 210.688c-27.937-18.378-63.616-22.362-94.866-7.34-19.736 9.487-34.647 25.092-43.742 43.688 3.419 9.531 5.287 19.8 5.287 30.508 0 1.656-.048 3.302-.136 4.936.787.217 1.571.443 2.349.68 7.966-23.931 24.804-44.438 48.741-55.945 26.622-12.798 56.456-11.793 81.982.146.974-4.302 1.68-8.682 2.093-13.118.132-1.413-.523-2.776-1.708-3.555z" fill="#02905d"/></g><g><path d="m279.121 187.211c6.041 0 11.941.598 17.649 1.729 1.124-6.867 1.721-13.9 1.721-21.068 0-48.531-26.735-91.108-66.933-115.105-1.49-.89-3.362-.89-4.852 0-40.199 23.998-66.933 66.574-66.933 115.105 0 32.601 12.077 62.504 32.182 85.904 10.435-38.357 45.503-66.565 87.166-66.565z" fill="#09a76d"/><path d="m204.806 226.187c-8.843-17.667-13.806-37.435-13.806-58.314 0-43.001 20.999-81.316 53.746-106.185-4.211-3.198-8.607-6.185-13.187-8.92-1.49-.89-3.362-.89-4.852 0-40.199 23.998-66.933 66.574-66.933 115.105 0 32.601 12.077 62.504 32.182 85.904 2.717-9.993 7.107-19.294 12.85-27.59z" fill="#02905d"/></g><g><path d="m262.157 334.157c13.773-32.286 45.804-54.917 83.123-54.917 8.324 0 16.383 1.132 24.038 3.24.088-1.634.136-3.28.136-4.936 0-49.889-40.443-90.332-90.332-90.332s-90.332 40.443-90.332 90.332c0 .744.01 1.486.028 2.225 33.066 3.561 60.786 24.962 73.339 54.388z" fill="#814aa0"/><path d="m220.787 289.454c-.514-3.898-.787-7.872-.787-11.91 0-44.567 32.275-81.592 74.727-88.985-5.07-.883-10.283-1.347-15.606-1.347-49.889 0-90.332 40.443-90.332 90.332 0 .744.01 1.486.028 2.225 11.431 1.231 22.222 4.594 31.97 9.685z" fill="#693685"/><g><ellipse cx="279.545" cy="228.349" fill="#693685" rx="25.206" ry="14.843"/></g></g><g><path d="m345.28 279.24c-37.319 0-69.349 22.632-83.123 54.917 4.639 10.875 7.21 22.844 7.21 35.415s-2.57 24.54-7.21 35.415c13.773 32.286 45.804 54.917 83.123 54.917 49.889 0 90.332-40.443 90.332-90.332s-40.443-90.332-90.332-90.332z" fill="#814aa0"/><path d="m286 369.572c0-44.594 32.316-81.637 74.806-88.998-5.045-.874-10.232-1.334-15.526-1.334-37.319 0-69.349 22.632-83.123 54.917 4.639 10.875 7.21 22.844 7.21 35.415s-2.57 24.54-7.21 35.415c13.773 32.286 45.804 54.917 83.123 54.917 5.295 0 10.481-.46 15.526-1.334-42.49-7.361-74.806-44.403-74.806-88.998z" fill="#693685"/><g><circle cx="355.408" cy="346.41" fill="#693685" r="38.593"/></g></g><g><g><circle cx="179.035" cy="369.572" fill="#9857bd" r="90.332"/></g><g><path d="m120 369.572c0-44.552 32.253-81.567 74.683-88.978-5.083-.888-10.311-1.354-15.649-1.354-49.889 0-90.332 40.443-90.332 90.332s40.443 90.332 90.332 90.332c5.337 0 10.566-.466 15.649-1.354-42.429-7.411-74.683-44.426-74.683-88.978z" fill="#814aa0"/></g><g><g><circle cx="162" cy="391.19" fill="#693685" r="38.593"/></g></g></g><g><path d="m506.896 204.422c-31.339-20.616-69.559-23.544-102.236-7.834-16.278 7.825-29.784 19.625-39.687 34.102-3.093-5.671-6.736-11.063-10.936-16.059-2.665-3.171-7.396-3.582-10.567-.916s-3.58 7.396-.915 10.567c11.565 13.758 18.314 30.964 19.269 48.863-5.38-.92-10.906-1.406-16.543-1.406-35.048 0-65.837 18.536-83.115 46.311-14.358-23.083-38.052-39.783-65.767-44.767 2.224-43.702 38.479-78.572 82.724-78.572 13.494 0 26.364 3.145 38.254 9.348 3.669 1.916 8.202.492 10.118-3.18s.492-8.203-3.181-10.119c-6.097-3.181-12.537-5.7-19.176-7.526.562-5.064.855-10.189.855-15.362 0-49.721-26.389-95.158-70.588-121.544-3.868-2.311-8.675-2.311-12.542-.001-44.201 26.387-70.589 71.824-70.589 121.545 0 4.743.247 9.445.72 14.097-6.003-4.323-12.419-8.164-19.232-11.439-11.279-5.422-23.267-9.127-35.63-11.013-4.097-.627-7.921 2.188-8.545 6.283-.625 4.095 2.188 7.92 6.283 8.545 10.893 1.662 21.455 4.926 31.393 9.704 11.347 5.455 21.476 12.67 30.165 21.276 5.169 18.39 14.109 35.515 26.303 50.461-.618 2.709-1.118 5.462-1.505 8.251l-24.673-11.86-15.466-44.099c-1.371-3.909-5.651-5.967-9.559-4.595-3.909 1.371-5.966 5.65-4.595 9.559l10.501 29.945-31.247-15.021-10.412-29.687c-1.371-3.909-5.651-5.967-9.559-4.595-3.909 1.371-5.966 5.65-4.595 9.559l5.447 15.533-22.844-10.981c-3.733-1.793-8.214-.222-10.009 3.51-1.794 3.733-.223 8.214 3.51 10.009l22.845 10.982-15.533 5.447c-3.909 1.371-5.966 5.651-4.596 9.56 1.083 3.088 3.981 5.02 7.078 5.02.823 0 1.661-.137 2.482-.424l29.688-10.412 31.247 15.021-29.945 10.502c-3.909 1.371-5.966 5.65-4.595 9.559 1.083 3.088 3.98 5.02 7.077 5.02.823 0 1.661-.137 2.482-.425l44.1-15.466 14.509 6.975c-18.829 2.605-35.961 10.586-49.794 22.342-12.623-1.307-25.062-4.758-36.839-10.42-35.716-17.168-59.47-51.688-63.785-92.55 14.576-9.318 31.104-15.481 47.902-17.848 4.102-.578 6.958-4.372 6.38-8.474-.578-4.101-4.369-6.954-8.474-6.38-19.491 2.748-38.64 10.019-55.377 21.03-3.83 2.52-5.946 6.921-5.522 11.488 4.357 46.841 31.414 86.562 72.377 106.253 9.822 4.721 20.045 8.071 30.451 10.119-13.552 16.791-21.679 38.132-21.679 61.34 0 53.945 43.887 97.832 97.832 97.832 35.052 0 65.851-18.533 83.13-46.31 17.279 27.775 48.067 46.311 83.115 46.311 21.952 0 42.699-7.108 59.997-20.557 3.27-2.542 3.86-7.254 1.317-10.524s-7.256-3.858-10.524-1.317c-14.641 11.382-32.204 17.399-50.79 17.399-33.099 0-61.706-19.526-74.959-47.655 4.223-10.922 6.546-22.783 6.546-35.178s-2.322-24.255-6.546-35.178c13.252-28.129 41.859-47.654 74.959-47.654 45.674 0 82.832 37.158 82.832 82.832 0 14.456-3.777 28.684-10.925 41.145-2.061 3.593-.818 8.176 2.774 10.237 3.595 2.061 8.177.819 10.237-2.774 8.448-14.729 12.913-31.537 12.913-48.608 0-22.858-7.883-43.909-21.069-60.582 11.014-1.277 21.869-4.366 32.17-9.317 32.681-15.709 54.265-47.386 57.738-84.732.389-4.183-1.547-8.214-5.055-10.521zm-339.623-36.55c0-43.855 23.093-84.036 61.859-107.807 38.77 23.77 61.859 63.949 61.859 107.807 0 4.204-.239 8.368-.658 12.493-3.718-.43-7.462-.654-11.212-.654-15.217 0-29.632 3.493-42.489 9.718v-20.832l24.595-24.594c2.929-2.929 2.929-7.678 0-10.606-2.929-2.93-7.677-2.929-10.606 0l-13.988 13.988v-29.522c0-4.142-3.358-7.5-7.5-7.5s-7.5 3.358-7.5 7.5v29.522l-13.988-13.988c-2.929-2.929-7.678-2.929-10.606 0-2.929 2.929-2.929 7.678 0 10.606l24.594 24.594v29.839c-1.959 1.428-3.863 2.926-5.709 4.491l-20.116-20.116c-2.928-2.929-7.677-2.929-10.606 0s-2.929 7.678 0 10.606l20.05 20.051c-6.452 7.428-11.799 15.838-15.797 24.968-14.289-20.573-22.182-44.937-22.182-70.564zm11.761 284.532c-45.674 0-82.832-37.158-82.832-82.832s37.158-82.832 82.832-82.832 82.832 37.158 82.832 82.832-37.158 82.832-82.832 82.832zm268.68-166.251c-12.564 6.04-26.105 8.82-39.653 8.452-7.651-6.418-16.293-11.687-25.662-15.543l9.475-4.555 33.998 11.923c.821.288 1.659.425 2.482.425 3.097 0 5.994-1.933 7.077-5.02 1.371-3.909-.687-8.188-4.595-9.559l-19.844-6.96 20.429-9.821 22.681 7.955c.821.288 1.659.425 2.482.425 3.097 0 5.994-1.933 7.077-5.02 1.371-3.909-.687-8.188-4.595-9.559l-8.528-2.991 14.433-6.938c3.733-1.795 5.305-6.276 3.511-10.009-1.796-3.734-6.281-5.304-10.009-3.51l-14.433 6.938 2.99-8.526c1.371-3.909-.687-8.189-4.595-9.56-3.912-1.374-8.188.687-9.56 4.595l-7.955 22.682-20.429 9.82 6.959-19.844c1.371-3.909-.687-8.188-4.595-9.56-3.911-1.369-8.189.688-9.56 4.596l-11.923 33.998-9.194 4.419c-.759-6.056-2.078-12.012-3.936-17.792 8.621-16.23 22.026-29.392 38.912-37.509 27.247-13.098 59.091-10.958 85.627 5.648-3.601 31.095-21.82 57.302-49.067 70.4z"/><path d="m246.84 228.348c0 12.529 14.366 22.343 32.706 22.343 18.339 0 32.705-9.814 32.705-22.343s-14.366-22.343-32.705-22.343c-18.341 0-32.706 9.815-32.706 22.343zm50.41 0c0 2.521-6.895 7.343-17.705 7.343s-17.706-4.822-17.706-7.343 6.896-7.343 17.706-7.343 17.705 4.822 17.705 7.343z"/><path d="m309.315 346.41c0 25.416 20.677 46.093 46.093 46.093s46.092-20.678 46.092-46.093-20.677-46.092-46.093-46.092-46.092 20.676-46.092 46.092zm77.185 0c0 17.145-13.948 31.093-31.093 31.093s-31.093-13.948-31.093-31.093 13.948-31.092 31.093-31.092 31.093 13.947 31.093 31.092z"/><path d="m347.907 333.162v4.317l-4.122-1.333c-3.936-1.273-8.169.886-9.443 4.829-1.275 3.941.887 8.169 4.828 9.444l4.103 1.327-2.545 3.51c-2.432 3.353-1.685 8.042 1.668 10.474 1.33.965 2.871 1.429 4.397 1.429 2.321 0 4.61-1.074 6.077-3.098l2.537-3.499 2.538 3.499c1.467 2.023 3.756 3.097 6.077 3.097 1.526 0 3.067-.464 4.397-1.429 3.354-2.432 4.1-7.122 1.668-10.475l-2.545-3.509 4.102-1.327c3.941-1.275 6.104-5.503 4.828-9.444-1.274-3.941-5.504-6.104-9.443-4.829l-4.122 1.333v-4.317c0-4.142-3.357-7.5-7.5-7.5s-7.5 3.359-7.5 7.501z"/><path d="m162 345.097c-25.416 0-46.093 20.677-46.093 46.093s20.677 46.093 46.093 46.093 46.093-20.677 46.093-46.093-20.677-46.093-46.093-46.093zm0 77.186c-17.145 0-31.093-13.948-31.093-31.093s13.948-31.093 31.093-31.093 31.093 13.948 31.093 31.093-13.948 31.093-31.093 31.093z"/><path d="m173.622 380.926-4.122 1.333v-4.317c0-4.142-3.358-7.5-7.5-7.5s-7.5 3.358-7.5 7.5v4.317l-4.122-1.333c-3.942-1.276-8.169.888-9.444 4.829-1.274 3.941.887 8.169 4.829 9.444l4.102 1.327-2.545 3.509c-2.432 3.353-1.685 8.043 1.668 10.475 1.33.965 2.871 1.429 4.397 1.429 2.321 0 4.611-1.074 6.078-3.097l2.538-3.499 2.538 3.499c1.467 2.023 3.756 3.097 6.078 3.097 1.526 0 3.067-.464 4.397-1.429 3.353-2.432 4.1-7.122 1.668-10.475l-2.545-3.509 4.102-1.327c3.941-1.275 6.103-5.503 4.829-9.444-1.277-3.941-5.504-6.105-9.446-4.829z"/></g></g></svg>