<svg id="Capa_1" enable-background="new 0 0 512 512" height="512" viewBox="0 0 512 512" width="512" xmlns="http://www.w3.org/2000/svg"><g><g><g><g><path d="m195.668 10.289c-103.756 0-188.168 84.412-188.168 188.168 0 57.107 25.577 108.346 65.871 142.884l16.542-35.629c1.075-2.316 4.367-2.316 5.442 0l22.383 48.21c2.579 5.556 3.138 11.351 2.117 16.735 23.206 10.257 48.853 15.967 75.813 15.967 7.014 0 13.935-.399 20.752-1.15-1.941-9.463-2.961-19.257-2.961-29.285 0-80.24 65.28-145.52 145.521-145.52 8.285 0 16.408.707 24.319 2.043.354-4.707.537-9.46.537-14.256 0-103.755-84.412-188.167-188.168-188.167z" fill="#09a76d"/><path d="m195.668 35.521c-89.987 0-162.937 72.949-162.937 162.937 0 46.982 19.893 89.312 51.706 119.048l5.475-11.793c1.075-2.316 4.367-2.316 5.442 0l14.523 31.28c24.917 15.464 54.308 24.402 85.791 24.402 6.036 0 11.991-.339 17.857-.978-.04-1.404-.066-2.812-.066-4.226 0-79.963 64.831-145.06 144.69-145.51.299-4.036.455-8.111.455-12.223.001-89.988-72.948-162.937-162.936-162.937z" fill="#d1f19e"/><path d="m314.425 217.656c1.003-6.252 1.532-12.663 1.532-19.198 0-66.434-53.855-120.289-120.289-120.289s-120.289 53.855-120.289 120.288 53.855 120.289 120.289 120.289c7.972 0 15.76-.783 23.298-2.263 13.275-46.747 49.39-83.976 95.459-98.827z" fill="#bbec6c"/><g fill="#fff"><g><path d="m194.727 249.678-9.938 21.404c-3.691 7.95 2.114 17.045 10.879 17.045 8.765 0 14.57-9.095 10.879-17.045l-9.938-21.404c-.371-.801-1.51-.801-1.882 0z"/><path d="m196.61 147.237 9.938-21.404c3.691-7.95-2.114-17.045-10.879-17.045-8.765 0-14.57 9.095-10.879 17.045l9.938 21.404c.371.801 1.51.801 1.882 0z"/></g><g><path d="m246.889 199.399 21.404 9.938c7.95 3.691 17.045-2.114 17.045-10.879 0-8.765-9.095-14.57-17.045-10.879l-21.404 9.938c-.801.371-.801 1.51 0 1.882z"/><path d="m144.448 197.516-21.404-9.938c-7.95-3.691-17.045 2.114-17.045 10.879 0 8.765 9.095 14.57 17.045 10.879l21.404-9.938c.801-.371.801-1.51 0-1.882z"/></g><g><path d="m239.329 257.503c1.244 3.401 3.781 5.775 6.758 6.975 4.703-5.779 9.836-11.193 15.357-16.189-1.267-2.722-3.553-5.009-6.73-6.172l-22.162-8.108c-.829-.303-1.635.502-1.331 1.331z"/><path d="m160.116 161.573-8.108-22.162c-3.012-8.232-13.548-10.558-19.745-4.36-6.198 6.198-3.871 16.734 4.36 19.745l22.162 8.108c.829.304 1.634-.501 1.331-1.331z"/></g><g><path d="m232.552 162.905 22.162-8.108c8.232-3.012 10.558-13.548 4.36-19.745-6.198-6.198-16.734-3.871-19.745 4.36l-8.108 22.162c-.304.829.502 1.634 1.331 1.331z"/><path d="m158.784 234.01-22.162 8.108c-8.232 3.012-10.558 13.548-4.36 19.745 6.198 6.198 16.734 3.871 19.745-4.36l8.108-22.162c.304-.829-.501-1.634-1.331-1.331z"/></g></g></g></g><g><path d="m168.483 417.493-18.527 39.905c-7.209 15.528 4.129 33.292 21.248 33.292 17.12 0 28.458-17.764 21.248-33.292l-18.527-39.905c-1.075-2.316-4.367-2.316-5.442 0z" fill="#99e6fc"/></g><g><path d="m429.734 120.987-18.527 39.905c-7.209 15.528 4.129 33.292 21.248 33.292 17.12 0 28.458-17.764 21.248-33.292l-18.527-39.905c-1.075-2.316-4.367-2.316-5.442 0z" fill="#99e6fc"/></g><g><path d="m89.912 305.713-22.383 48.21c-8.518 18.346 4.878 39.334 25.104 39.334 20.226 0 33.622-20.988 25.104-39.334l-22.383-48.21c-1.075-2.316-4.366-2.316-5.442 0z" fill="#99e6fc"/></g></g><g><g><ellipse cx="358.98" cy="356.19" fill="#02905d" rx="145.52" ry="145.521" transform="matrix(.707 -.707 .707 .707 -146.722 358.163)"/></g><g><circle cx="358.98" cy="356.19" fill="#d1f19e" r="120.289"/></g><g><g fill="#fff"><path d="m358.038 397.284-9.938 21.404c-3.691 7.95 2.114 17.045 10.879 17.045 8.765 0 14.57-9.095 10.879-17.045l-9.938-21.404c-.371-.801-1.51-.801-1.882 0z"/><path d="m359.921 315.73 9.938-21.404c3.691-7.95-2.114-17.045-10.879-17.045-8.765 0-14.57 9.095-10.879 17.045l9.938 21.404c.371.801 1.51.801 1.882 0z"/></g><g fill="#fff"><path d="m394.532 382.948 8.108 22.162c3.012 8.232 13.548 10.558 19.745 4.36 6.198-6.198 3.871-16.734-4.36-19.745l-22.162-8.108c-.829-.304-1.634.501-1.331 1.331z"/><path d="m323.427 330.067-8.108-22.162c-3.012-8.232-13.548-10.558-19.745-4.36-6.198 6.198-3.871 16.734 4.36 19.745l22.162 8.108c.829.303 1.635-.502 1.331-1.331z"/></g><g><path d="m395.864 331.398 22.162-8.108c8.232-3.012 10.558-13.548 4.36-19.745-6.198-6.198-16.734-3.871-19.745 4.36l-8.108 22.162c-.304.829.501 1.634 1.331 1.331z" fill="#fff"/><g><path d="m322.096 381.616-22.162 8.108c-8.232 3.012-10.558 13.548-4.36 19.745 6.198 6.198 16.734 3.871 19.745-4.36l8.108-22.162c.304-.829-.502-1.634-1.331-1.331z" fill="#fff"/></g></g></g></g><g><path d="m203.413 246.521c-1.394-3.003-4.434-4.944-7.745-4.944s-6.351 1.94-7.744 4.944l-9.938 21.403c-2.817 6.068-2.35 13.058 1.25 18.697 3.599 5.64 9.742 9.006 16.433 9.006 6.69 0 12.833-3.367 16.432-9.006 3.6-5.64 4.067-12.629 1.25-18.698zm-3.956 32.03c-.398.624-1.565 2.076-3.788 2.076s-3.39-1.452-3.789-2.077c-.398-.624-1.225-2.294-.288-4.311l4.076-8.78 4.077 8.78c.936 2.018.11 3.688-.288 4.312z"/><path d="m187.923 150.392c1.394 3.004 4.434 4.946 7.745 4.946 3.312 0 6.352-1.941 7.746-4.946l9.937-21.401c2.817-6.068 2.35-13.058-1.249-18.697-3.6-5.64-9.742-9.006-16.433-9.006s-12.833 3.367-16.433 9.006c-3.599 5.64-4.066 12.629-1.249 18.697zm3.957-32.028c.398-.625 1.565-2.077 3.789-2.077 2.223 0 3.39 1.452 3.789 2.076.398.625 1.224 2.294.288 4.311l-4.077 8.78-4.076-8.78c-.937-2.016-.112-3.686.287-4.31z"/><path d="m265.135 180.776-21.405 9.938c-3.002 1.394-4.942 4.434-4.942 7.744s1.94 6.35 4.942 7.744l21.404 9.938c2.629 1.221 5.431 1.825 8.221 1.825 3.65 0 7.28-1.034 10.477-3.074 5.639-3.6 9.006-9.743 9.006-16.433s-3.367-12.833-9.007-16.433c-5.641-3.6-12.629-4.065-18.696-1.249zm10.627 13.893c.624.398 2.076 1.565 2.076 3.789 0 2.223-1.452 3.39-2.076 3.789-.625.398-2.294 1.225-4.311.288l-8.78-4.076 8.78-4.077c2.019-.936 3.686-.111 4.311.287z"/><path d="m147.606 206.201c3.002-1.394 4.942-4.434 4.942-7.744s-1.94-6.35-4.942-7.744l-21.404-9.937c-6.069-2.819-13.058-2.351-18.697 1.248-5.64 3.6-9.007 9.743-9.007 16.433s3.367 12.833 9.006 16.433c3.196 2.04 6.826 3.074 10.476 3.074 2.79 0 5.592-.604 8.221-1.825zm-32.031-3.955c-.624-.398-2.076-1.565-2.076-3.789s1.452-3.39 2.077-3.789c.415-.265 1.29-.718 2.423-.718.572 0 1.21.116 1.887.43l8.78 4.076-8.78 4.076c-2.016.938-3.687.113-4.311-.286z"/><path d="m134.045 161.84 22.164 8.109c.949.347 1.937.515 2.917.515 2.231 0 4.426-.872 6.052-2.497 2.34-2.34 3.118-5.86 1.982-8.969 0-.001-.001-.001-.001-.002l-8.108-22.161c-2.298-6.283-7.57-10.896-14.104-12.338-6.533-1.442-13.257.52-17.988 5.25-4.731 4.731-6.694 11.455-5.251 17.988 1.442 6.534 6.054 11.807 12.337 14.105zm3.52-21.486c1.068-1.068 2.265-1.317 3.15-1.317.417 0 .766.056.998.107.723.16 2.487.756 3.251 2.845l3.326 9.091-9.091-3.326c-2.088-.764-2.685-2.528-2.845-3.252-.159-.724-.361-2.575 1.211-4.148z"/><path d="m269.629 147.735c1.442-6.533-.521-13.257-5.251-17.987-4.732-4.731-11.458-6.694-17.989-5.251-6.533 1.442-11.805 6.055-14.104 12.337l-8.109 22.164c-1.136 3.108-.358 6.628 1.982 8.969 1.626 1.625 3.82 2.497 6.052 2.497.98 0 1.968-.168 2.917-.515 0 0 .001 0 .002-.001l22.163-8.108c6.282-2.299 10.895-7.571 12.337-14.105zm-14.647-3.234c-.16.723-.757 2.488-2.844 3.252l-9.091 3.326 3.326-9.091c.764-2.088 2.528-2.685 3.251-2.844.232-.051.58-.107.998-.107.885 0 2.082.25 3.15 1.318 1.571 1.572 1.37 3.423 1.21 4.146z"/><path d="m156.206 226.967-22.161 8.107c-6.283 2.299-10.895 7.571-12.337 14.104s.521 13.257 5.251 17.988c3.708 3.708 8.641 5.716 13.747 5.716 1.408 0 2.829-.153 4.242-.465 6.533-1.442 11.805-6.055 14.104-12.337l8.109-22.165c1.136-3.109.357-6.63-1.983-8.97-2.343-2.339-5.863-3.115-8.972-1.978zm-11.242 27.96c-.764 2.088-2.528 2.685-3.251 2.844-.723.161-2.575.361-4.147-1.21-1.572-1.572-1.371-3.424-1.211-4.147s.757-2.488 2.844-3.251l9.091-3.326zm16.39-13.871.007-.002h.002c-.004 0-.007.001-.009.002z"/><path d="m180.729 414.336c-1.74-3.75-5.389-6.079-9.523-6.08 0 0 0 0-.001 0-4.134 0-7.783 2.329-9.524 6.079l-18.527 39.905c-4.469 9.627-3.729 20.716 1.982 29.662 5.71 8.947 15.456 14.288 26.069 14.288s20.359-5.341 26.069-14.288 6.451-20.036 1.981-29.662zm3.901 61.496c-2.984 4.676-7.878 7.358-13.425 7.358s-10.441-2.682-13.425-7.358c-2.985-4.676-3.356-10.244-1.021-15.276l14.445-31.114 14.446 31.114c2.336 5.032 1.964 10.6-1.02 15.276z"/><path d="m432.455 201.684c10.613 0 20.358-5.341 26.069-14.288 5.71-8.947 6.451-20.036 1.981-29.663l-18.527-39.905c-1.741-3.75-5.391-6.079-9.524-6.079s-7.782 2.329-9.523 6.079l-18.527 39.905c-4.47 9.627-3.729 20.715 1.981 29.662 5.711 8.947 15.456 14.289 26.07 14.289zm-14.446-37.634 14.446-31.114 14.445 31.114c2.336 5.032 1.964 10.6-1.021 15.275-2.984 4.676-7.878 7.358-13.426 7.358-5.547 0-10.44-2.682-13.425-7.358s-3.355-10.243-1.019-15.275z"/><path d="m391.163 206.586c.113-2.696.173-5.406.173-8.129 0-107.892-87.776-195.667-195.668-195.667s-195.668 87.775-195.668 195.667c0 57.331 24.804 108.961 64.221 144.78l-3.495 7.528c-5.084 10.95-4.241 23.563 2.254 33.74s17.581 16.252 29.653 16.252 23.158-6.076 29.653-16.252c.795-1.245 1.503-2.528 2.128-3.839 22.093 8.673 46.122 13.46 71.254 13.46 5.018 0 9.985-.214 14.908-.592 16.711 66.384 76.906 115.677 148.404 115.677 84.375 0 153.02-68.645 153.02-153.02 0-73.339-51.864-134.782-120.837-149.605zm-376.163-8.129c0-99.621 81.047-180.667 180.668-180.667s180.667 81.047 180.667 180.667c0 1.905-.037 3.801-.097 5.692-3.373-.38-6.777-.654-10.211-.811.047-1.622.078-3.248.078-4.881 0-93.979-76.458-170.437-170.438-170.437-43.07 0-84.183 16.106-115.765 45.353-31.404 29.082-50.614 68.508-54.09 111.016-.337 4.128 2.735 7.749 6.864 8.086 4.123.338 7.749-2.736 8.086-6.864 3.169-38.756 20.689-74.708 49.332-101.232 28.8-26.67 66.294-41.358 105.573-41.358 85.709 0 155.438 69.729 155.438 155.437 0 1.646-.034 3.284-.086 4.918-9.551.492-18.869 1.873-27.883 4.045.208-2.962.321-5.949.321-8.963 0-27.753-8.749-54.15-25.3-76.338-2.477-3.32-7.176-4.003-10.496-1.527-3.32 2.477-4.004 7.176-1.527 10.496 14.604 19.577 22.323 42.874 22.323 67.37 0 4.597-.283 9.13-.821 13.584-16.655 5.95-31.987 14.706-45.422 25.701-1.485-1.101-3.13-2.012-4.923-2.668l-22.161-8.107c-3.107-1.136-6.629-.361-8.971 1.979-2.341 2.34-3.12 5.861-1.983 8.97 0 .001.001.001.001.002l8.108 22.162c.777 2.125 1.908 4.045 3.3 5.728-9.723 13.239-17.37 28.089-22.457 44.074-5.693.89-11.522 1.364-17.461 1.364-62.192 0-112.789-50.597-112.789-112.789s50.598-112.791 112.79-112.791c24.434 0 47.683 7.685 67.233 22.224 3.325 2.473 8.021 1.781 10.494-1.542 2.472-3.324 1.781-8.022-1.543-10.494-22.158-16.478-48.502-25.188-76.185-25.188-70.463 0-127.789 57.326-127.789 127.789s57.326 127.789 127.789 127.789c4.517 0 8.979-.24 13.376-.702-1.85 9.066-2.887 18.424-3.051 27.99-3.414.229-6.854.36-10.325.36-28.376 0-55.964-7.738-79.952-22.135l-13.559-29.205c-1.741-3.749-5.39-6.078-9.523-6.078-4.134 0-7.783 2.329-9.523 6.078l-.959 2.065c-22.067-23.589-36.322-53.484-40.565-85.602-.542-4.105-4.308-6.991-8.418-6.453-4.106.542-6.996 4.312-6.453 8.418 4.917 37.224 22.09 71.719 48.672 98.203l-4.528 9.752c-34.393-32.911-55.859-79.229-55.859-130.48zm230.787 54.869-2.741-7.491 7.319 2.678c-1.558 1.573-3.088 3.175-4.578 4.813zm-136.144 123.109c-3.781 5.924-9.981 9.322-17.009 9.322s-13.228-3.398-17.009-9.322-4.252-12.979-1.292-19.354l18.301-39.419 18.302 39.419c2.959 6.375 2.488 13.429-1.293 19.354zm86.025 2.69c-23.984 0-46.882-4.716-67.84-13.241.033-4.033-.647-8.079-2.024-11.976 21.783 9.793 45.557 14.986 69.864 14.986 3.626 0 7.221-.13 10.791-.357.275 3.425.664 6.817 1.161 10.175-3.952.262-7.934.413-11.952.413zm163.312 115.085c-76.105 0-138.021-61.916-138.021-138.02 0-76.105 61.916-138.021 138.021-138.021 76.104 0 138.02 61.916 138.02 138.021s-61.915 138.02-138.02 138.02z"/><path d="m478.862 368.601c-4.095-.68-7.949 2.086-8.626 6.173-4.314 26.037-17.798 49.882-37.967 67.146-20.387 17.45-46.415 27.06-73.29 27.06-62.191 0-112.789-50.597-112.789-112.789s50.597-112.789 112.789-112.789c56.713 0 104.818 42.361 111.896 98.536.518 4.11 4.265 7.029 8.379 6.503 4.109-.518 7.021-4.269 6.504-8.378-8.021-63.657-62.525-111.661-126.779-111.661-70.463 0-127.789 57.326-127.789 127.789s57.326 127.789 127.789 127.789c30.45 0 59.942-10.89 83.045-30.664 22.845-19.554 38.119-46.576 43.011-76.089.677-4.087-2.087-7.949-6.173-8.626z"/><path d="m342.547 434.227c3.599 5.64 9.742 9.007 16.433 9.007s12.834-3.367 16.434-9.007c3.599-5.639 4.065-12.629 1.248-18.696l-9.938-21.405c-1.395-3.002-4.435-4.942-7.744-4.942s-6.35 1.94-7.744 4.942l-9.938 21.404c-2.818 6.068-2.351 13.057 1.249 18.697zm12.356-12.38 4.076-8.78 4.076 8.78c.937 2.016.111 3.686-.287 4.31s-1.565 2.076-3.789 2.076-3.39-1.452-3.789-2.077c-.397-.623-1.223-2.293-.287-4.309z"/><path d="m351.235 318.889c1.395 3.002 4.435 4.942 7.744 4.942s6.35-1.94 7.744-4.942l9.938-21.403c2.817-6.068 2.351-13.058-1.249-18.698-3.599-5.64-9.742-9.006-16.433-9.006s-12.833 3.367-16.433 9.007-4.066 12.629-1.249 18.697zm3.956-32.032c.398-.625 1.564-2.077 3.788-2.077s3.391 1.452 3.789 2.076c.398.625 1.224 2.294.287 4.311l-4.076 8.78-4.076-8.78c-.936-2.016-.11-3.686.288-4.31z"/><path d="m420.603 382.681-22.163-8.109c-3.109-1.136-6.631-.359-8.971 1.982s-3.117 5.862-1.979 8.97l8.108 22.161c2.299 6.284 7.571 10.896 14.104 12.338 1.412.312 2.833.465 4.24.464 5.105 0 10.039-2.008 13.746-5.715 4.731-4.731 6.694-11.455 5.252-17.988-1.442-6.532-6.054-11.805-12.337-14.103zm-3.521 21.486c-1.57 1.571-3.423 1.37-4.146 1.21-.724-.16-2.488-.757-3.253-2.845l-3.325-9.09 9.09 3.326c2.089.764 2.686 2.528 2.845 3.251.16.724.361 2.575-1.211 4.148z"/><path d="m330.471 327.49-8.108-22.162c-2.298-6.283-7.57-10.896-14.104-12.338-6.532-1.443-13.257.52-17.989 5.251-4.73 4.731-6.693 11.456-5.25 17.988 1.442 6.533 6.055 11.805 12.337 14.104l22.163 8.108c.95.347 1.938.516 2.919.516 2.23 0 4.427-.872 6.052-2.498 2.339-2.34 3.116-5.861 1.98-8.969zm-27.96-11.243c-2.088-.764-2.685-2.528-2.845-3.251-.159-.724-.361-2.576 1.21-4.147 1.068-1.068 2.266-1.318 3.15-1.318.418 0 .766.056.998.107.723.16 2.487.756 3.251 2.844l3.326 9.091z"/><path d="m427.689 298.241c-4.729-4.73-11.455-6.692-17.987-5.251-6.533 1.442-11.807 6.055-14.104 12.338l-8.108 22.161c-1.138 3.108-.361 6.63 1.979 8.971 1.626 1.626 3.821 2.498 6.052 2.498.981 0 1.97-.168 2.919-.516h.001l22.162-8.108c6.283-2.299 10.896-7.572 12.338-14.105s-.521-13.258-5.252-17.988zm-9.396 14.754c-.159.723-.757 2.488-2.845 3.252l-9.09 3.326 3.325-9.091c.765-2.088 2.529-2.685 3.252-2.844.232-.051.58-.107.997-.107.885 0 2.082.25 3.15 1.318 1.572 1.571 1.371 3.422 1.211 4.146z"/><path d="m319.52 374.572c0 .001 0 .001 0 0l-22.162 8.109c-6.283 2.298-10.896 7.57-12.338 14.103-1.443 6.533.52 13.258 5.25 17.989 3.709 3.708 8.642 5.716 13.747 5.716 1.408 0 2.83-.152 4.242-.464 6.532-1.442 11.806-6.055 14.104-12.338l8.106-22.16c1.138-3.108.361-6.63-1.979-8.971-2.341-2.343-5.865-3.119-8.97-1.984zm-11.244 27.961c-.765 2.088-2.529 2.685-3.252 2.845-.725.159-2.576.363-4.147-1.211-1.572-1.572-1.37-3.424-1.211-4.147.16-.723.757-2.487 2.845-3.251l9.091-3.326z"/></g></g></svg>