<svg id="Capa_1" enable-background="new 0 0 512 512" height="512" viewBox="0 0 512 512" width="512" xmlns="http://www.w3.org/2000/svg"><g><g><g><path d="m362.576 56.301c3.572-2.682 8.502-2.682 12.074 0 3.292 2.472 6.18 5.445 8.58 8.793 4.729-6.595 7.525-14.669 7.525-23.404 0-13.169-6.327-24.854-16.104-32.197-3.572-2.683-8.502-2.683-12.074 0-9.777 7.343-16.104 19.028-16.104 32.197 0 8.736 2.796 16.809 7.525 23.404 2.398-3.348 5.286-6.321 8.578-8.793z" fill="#693685"/><g><path d="m352.78 110.107c-3.986-6.243-6.308-13.651-6.308-21.609 0-6.316 1.468-12.284 4.062-17.602-8.35-5.52-18.297-7.613-27.857-6.253-4.423.629-7.908 4.115-8.538 8.537-1.722 12.106 2.067 24.842 11.379 34.154 6.494 6.495 14.656 10.294 23.106 11.419 1.043-3.065 2.443-5.963 4.156-8.646z" fill="#814aa0"/><path d="m423.087 73.18c-.629-4.423-4.115-7.908-8.537-8.537-9.56-1.36-19.508.732-27.857 6.253 2.594 5.318 4.062 11.286 4.062 17.602 0 7.958-2.323 15.366-6.309 21.609 1.713 2.683 3.112 5.581 4.156 8.647 8.45-1.126 16.611-4.925 23.106-11.419 9.312-9.313 13.1-22.049 11.379-34.155z" fill="#814aa0"/><g><path d="m374.65 56.301c-3.572-2.683-8.502-2.683-12.074 0-9.777 7.343-16.104 19.028-16.104 32.197s6.327 24.854 16.104 32.197c3.572 2.683 8.502 2.683 12.074 0 9.777-7.343 16.104-19.028 16.104-32.197s-6.327-24.855-16.104-32.197z" fill="#9857bd"/></g></g><g><path d="m352.78 153.325c-3.986-6.243-6.308-13.651-6.308-21.609 0-6.316 1.468-12.284 4.062-17.602-8.35-5.52-18.297-7.613-27.857-6.253-4.423.629-7.908 4.115-8.538 8.537-1.722 12.106 2.067 24.842 11.379 34.154 6.494 6.495 14.656 10.294 23.106 11.419 1.043-3.065 2.443-5.963 4.156-8.646z" fill="#9857bd"/><path d="m423.087 116.398c-.629-4.423-4.115-7.909-8.537-8.537-9.56-1.36-19.508.732-27.857 6.253 2.594 5.318 4.062 11.286 4.062 17.602 0 7.958-2.323 15.366-6.309 21.609 1.713 2.683 3.112 5.581 4.156 8.647 8.45-1.126 16.611-4.925 23.106-11.419 9.312-9.312 13.1-22.049 11.379-34.155z" fill="#9857bd"/><g><path d="m374.65 99.519c-3.572-2.683-8.502-2.683-12.074 0-9.777 7.343-16.104 19.028-16.104 32.197s6.327 24.854 16.104 32.197c3.572 2.683 8.502 2.683 12.074 0 9.777-7.343 16.104-19.028 16.104-32.197s-6.327-24.854-16.104-32.197z" fill="#693685"/></g></g><g><path d="m352.78 196.544c-3.986-6.243-6.308-13.651-6.308-21.609 0-6.316 1.468-12.284 4.062-17.602-8.35-5.52-18.297-7.613-27.857-6.253-4.423.629-7.908 4.115-8.538 8.537-1.722 12.106 2.067 24.842 11.379 34.154 6.494 6.495 14.656 10.294 23.106 11.419 1.043-3.065 2.443-5.963 4.156-8.646z" fill="#814aa0"/><path d="m423.087 159.617c-.629-4.423-4.115-7.909-8.537-8.537-9.56-1.36-19.508.733-27.857 6.253 2.594 5.318 4.062 11.286 4.062 17.602 0 7.958-2.323 15.366-6.309 21.609 1.713 2.683 3.112 5.581 4.156 8.647 8.45-1.126 16.611-4.925 23.106-11.419 9.312-9.313 13.1-22.05 11.379-34.155z" fill="#814aa0"/><g><path d="m374.65 142.738c-3.572-2.683-8.502-2.683-12.074 0-9.777 7.343-16.104 19.028-16.104 32.197s6.327 24.854 16.104 32.197c3.572 2.683 8.502 2.683 12.074 0 9.777-7.343 16.104-19.028 16.104-32.197s-6.327-24.855-16.104-32.197z" fill="#9857bd"/></g></g><g><path d="m352.78 239.762c-3.986-6.243-6.308-13.651-6.308-21.609 0-6.316 1.468-12.284 4.062-17.602-8.35-5.52-18.297-7.613-27.857-6.253-4.423.629-7.908 4.115-8.538 8.537-1.722 12.106 2.067 24.842 11.379 34.154 6.494 6.495 14.656 10.294 23.106 11.419 1.043-3.065 2.443-5.963 4.156-8.646z" fill="#9857bd"/><path d="m423.087 202.835c-.629-4.423-4.115-7.908-8.537-8.537-9.56-1.36-19.508.733-27.857 6.253 2.594 5.318 4.062 11.286 4.062 17.602 0 7.958-2.323 15.366-6.309 21.609 1.713 2.683 3.113 5.581 4.156 8.647 8.45-1.126 16.611-4.925 23.106-11.419 9.312-9.312 13.1-22.049 11.379-34.155z" fill="#9857bd"/><g><path d="m374.65 185.956c-3.572-2.683-8.502-2.683-12.074 0-9.777 7.343-16.104 19.028-16.104 32.197s6.327 24.854 16.104 32.197c3.572 2.683 8.502 2.683 12.074 0 9.777-7.343 16.104-19.028 16.104-32.197s-6.327-24.854-16.104-32.197z" fill="#693685"/></g></g><g><path d="m352.78 282.981c-3.986-6.243-6.308-13.651-6.308-21.609 0-6.316 1.468-12.284 4.062-17.602-8.35-5.52-18.297-7.613-27.857-6.253-4.423.629-7.908 4.115-8.538 8.537-1.722 12.106 2.067 24.842 11.379 34.154 6.494 6.495 14.656 10.294 23.106 11.419 1.043-3.065 2.443-5.964 4.156-8.646z" fill="#814aa0"/><path d="m423.087 246.054c-.629-4.423-4.115-7.908-8.537-8.537-9.56-1.36-19.508.733-27.857 6.253 2.594 5.318 4.062 11.286 4.062 17.602 0 7.958-2.323 15.366-6.309 21.609 1.713 2.683 3.113 5.581 4.156 8.647 8.45-1.126 16.611-4.925 23.106-11.419 9.312-9.313 13.1-22.05 11.379-34.155z" fill="#814aa0"/><g><path d="m374.65 229.175c-3.572-2.683-8.502-2.683-12.074 0-9.777 7.343-16.104 19.028-16.104 32.197s6.327 24.854 16.104 32.197c3.572 2.683 8.502 2.683 12.074 0 9.777-7.342 16.104-19.028 16.104-32.197 0-13.17-6.327-24.855-16.104-32.197z" fill="#9857bd"/></g></g><g><path d="m346.472 304.59c0-6.316 1.468-12.284 4.062-17.602-8.35-5.52-18.297-7.613-27.857-6.253-4.423.629-7.908 4.115-8.538 8.537-1.722 12.106 2.067 24.842 11.379 34.154s22.049 13.101 34.154 11.379c.137-.02.271-.05.407-.075-8.338-7.373-13.607-18.134-13.607-30.14z" fill="#9857bd"/><path d="m423.087 289.272c-.629-4.423-4.115-7.908-8.537-8.537-9.56-1.36-19.508.732-27.857 6.253 2.594 5.318 4.062 11.286 4.062 17.602 0 12.006-5.27 22.767-13.607 30.14.136.025.269.056.407.075 12.105 1.722 24.842-2.067 34.154-11.379s13.099-22.048 11.378-34.154z" fill="#9857bd"/><g><path d="m374.65 272.393c-3.572-2.683-8.502-2.683-12.074 0-9.777 7.343-16.104 19.028-16.104 32.197s6.327 24.854 16.104 32.197c3.572 2.683 8.502 2.683 12.074 0 9.777-7.343 16.104-19.028 16.104-32.197s-6.327-24.855-16.104-32.197z" fill="#693685"/></g></g></g><g><g><ellipse cx="301.241" cy="397.816" fill="#09a76d" rx="18.608" ry="110.447" transform="matrix(.966 -.259 .259 .966 -92.698 91.522)"/></g><g><path d="m301.165 402.632c-7.994-29.836-11.816-58.891-11.885-85.143-5.251-9.523-10.82-18.352-16.625-26.356-3.38 32.43-.17 71.261 10.612 111.5s27.418 75.473 46.56 101.868c.874-8.384 1.298-17.203 1.273-26.356-12.063-21.882-22.422-47.477-29.935-75.513z" fill="#02905d"/></g><g><ellipse cx="435.984" cy="397.816" fill="#09a76d" rx="110.447" ry="18.608" transform="matrix(.259 -.966 .966 .259 -61.117 715.982)"/></g><g><path d="m436.905 393c7.3-27.244 17.29-52.182 28.917-73.647.092-9.82-.32-19.271-1.252-28.22-19.142 26.395-35.778 61.629-46.56 101.868s-13.992 79.07-10.612 111.5c6.182-8.524 12.096-17.982 17.642-28.22.241-25.765 4.059-54.147 11.865-83.281z" fill="#02905d"/></g></g><g><g><path d="m149.442 9.493c-3.572-2.683-8.502-2.683-12.074 0-9.777 7.343-16.104 19.028-16.104 32.197s6.327 24.854 16.104 32.197c3.572 2.683 8.502 2.683 12.074 0 9.777-7.343 16.104-19.028 16.104-32.197s-6.326-24.855-16.104-32.197z" fill="#693685"/></g><g><path d="m128.722 110.107c-4.18-6.311-6.458-13.757-6.458-21.609 0-6.039 1.356-11.835 3.879-17.063-8.512-5.932-18.802-8.196-28.675-6.792-4.423.629-7.908 4.115-8.537 8.537-1.722 12.106 2.067 24.842 11.379 34.154 6.749 6.748 15.297 10.581 24.099 11.532 1.065-3.091 2.507-6.032 4.313-8.759z" fill="#814aa0"/><path d="m197.88 73.18c-.629-4.423-4.115-7.908-8.537-8.537-9.872-1.404-20.162.86-28.674 6.792 2.523 5.228 3.879 11.024 3.879 17.064 0 7.852-2.278 15.298-6.458 21.609 1.806 2.727 3.248 5.668 4.313 8.759 8.802-.952 17.35-4.784 24.099-11.532 9.311-9.313 13.099-22.049 11.378-34.155z" fill="#814aa0"/><g><path d="m149.442 56.301c-3.572-2.683-8.502-2.683-12.074 0-9.777 7.343-16.104 19.028-16.104 32.197s6.327 24.854 16.104 32.197c3.572 2.683 8.502 2.683 12.074 0 9.777-7.343 16.104-19.028 16.104-32.197s-6.326-24.855-16.104-32.197z" fill="#9857bd"/></g></g><g><path d="m128.722 153.325c-4.18-6.311-6.458-13.757-6.458-21.609 0-6.039 1.356-11.835 3.879-17.063-8.512-5.932-18.802-8.196-28.675-6.792-4.423.629-7.908 4.115-8.537 8.537-1.722 12.106 2.067 24.842 11.379 34.154 6.749 6.748 15.297 10.581 24.099 11.532 1.065-3.091 2.507-6.032 4.313-8.759z" fill="#9857bd"/><path d="m197.88 116.398c-.629-4.423-4.115-7.909-8.537-8.537-9.872-1.404-20.162.86-28.674 6.792 2.523 5.228 3.879 11.024 3.879 17.064 0 7.852-2.278 15.298-6.458 21.609 1.806 2.727 3.248 5.667 4.313 8.759 8.802-.952 17.35-4.784 24.099-11.532 9.311-9.312 13.099-22.049 11.378-34.155z" fill="#9857bd"/><g><path d="m149.442 99.519c-3.572-2.683-8.502-2.683-12.074 0-9.777 7.343-16.104 19.028-16.104 32.197s6.327 24.854 16.104 32.197c3.572 2.683 8.502 2.683 12.074 0 9.777-7.343 16.104-19.028 16.104-32.197s-6.326-24.854-16.104-32.197z" fill="#693685"/></g></g><g><path d="m128.722 196.544c-4.18-6.311-6.458-13.757-6.458-21.609 0-6.039 1.356-11.835 3.879-17.063-8.512-5.932-18.802-8.196-28.674-6.792-4.423.629-7.908 4.115-8.537 8.537-1.722 12.106 2.067 24.842 11.379 34.154 6.749 6.748 15.297 10.581 24.099 11.532 1.064-3.092 2.506-6.032 4.312-8.759z" fill="#693685"/><path d="m197.88 159.617c-.629-4.423-4.115-7.909-8.537-8.537-9.872-1.404-20.162.86-28.674 6.792 2.523 5.228 3.879 11.024 3.879 17.063 0 7.852-2.278 15.298-6.458 21.609 1.806 2.727 3.248 5.667 4.313 8.759 8.802-.952 17.35-4.784 24.099-11.532 9.311-9.312 13.099-22.049 11.378-34.154z" fill="#693685"/><g><path d="m149.442 142.738c-3.572-2.683-8.502-2.683-12.074 0-9.777 7.343-16.104 19.028-16.104 32.197s6.327 24.854 16.104 32.197c3.572 2.683 8.502 2.683 12.074 0 9.777-7.343 16.104-19.028 16.104-32.197.001-13.169-6.326-24.855-16.104-32.197z" fill="#9857bd"/></g></g><g><path d="m128.722 239.762c-4.18-6.311-6.458-13.758-6.458-21.609 0-6.039 1.356-11.835 3.879-17.063-8.512-5.932-18.802-8.196-28.675-6.792-4.423.629-7.908 4.115-8.537 8.537-1.722 12.106 2.067 24.842 11.379 34.154 6.749 6.748 15.297 10.581 24.099 11.532 1.065-3.091 2.508-6.032 4.313-8.759z" fill="#9857bd"/><path d="m197.88 202.835c-.629-4.423-4.115-7.908-8.537-8.537-9.872-1.404-20.162.86-28.674 6.792 2.523 5.228 3.879 11.024 3.879 17.063 0 7.852-2.278 15.298-6.458 21.609 1.806 2.727 3.248 5.668 4.313 8.759 8.802-.952 17.35-4.784 24.099-11.532 9.311-9.311 13.099-22.048 11.378-34.154z" fill="#9857bd"/><g><path d="m149.442 185.956c-3.572-2.683-8.502-2.683-12.074 0-9.777 7.343-16.104 19.028-16.104 32.197s6.327 24.854 16.104 32.197c3.572 2.683 8.502 2.683 12.074 0 9.777-7.343 16.104-19.028 16.104-32.197.001-13.169-6.326-24.854-16.104-32.197z" fill="#693685"/></g></g><g><path d="m128.722 282.981c-4.18-6.311-6.458-13.757-6.458-21.609 0-6.039 1.356-11.835 3.879-17.063-8.512-5.932-18.802-8.196-28.675-6.792-4.423.629-7.908 4.115-8.537 8.537-1.722 12.106 2.067 24.842 11.379 34.154 6.749 6.748 15.297 10.581 24.099 11.532 1.065-3.092 2.507-6.033 4.313-8.759z" fill="#693685"/><path d="m197.88 246.054c-.629-4.423-4.115-7.908-8.537-8.537-9.872-1.404-20.162.86-28.674 6.792 2.523 5.228 3.879 11.024 3.879 17.064 0 7.852-2.278 15.298-6.458 21.609 1.806 2.727 3.248 5.668 4.313 8.76 8.802-.952 17.35-4.784 24.099-11.532 9.311-9.314 13.099-22.051 11.378-34.156z" fill="#693685"/><g><path d="m149.442 229.175c-3.572-2.683-8.502-2.683-12.074 0-9.777 7.343-16.104 19.028-16.104 32.197s6.327 24.854 16.104 32.197c3.572 2.683 8.502 2.683 12.074 0 9.777-7.342 16.104-19.028 16.104-32.197.001-13.17-6.326-24.855-16.104-32.197z" fill="#9857bd"/></g></g><g><path d="m122.264 304.59c0-6.039 1.356-11.835 3.879-17.063-8.512-5.932-18.802-8.196-28.674-6.792-4.423.629-7.908 4.115-8.537 8.537-1.722 12.106 2.067 24.842 11.379 34.154s22.049 13.101 34.154 11.379c.543-.077 1.072-.199 1.583-.359-8.789-7.474-13.784-18.222-13.784-29.856z" fill="#9857bd"/><path d="m197.88 289.272c-.629-4.423-4.115-7.908-8.537-8.537-9.872-1.404-20.162.86-28.674 6.792 2.523 5.228 3.879 11.024 3.879 17.064 0 11.635-4.995 22.382-13.784 29.857.511.16 1.04.281 1.583.359 12.106 1.722 24.842-2.067 34.154-11.379 9.312-9.314 13.1-22.05 11.379-34.156z" fill="#9857bd"/><g><path d="m149.442 272.393c-3.572-2.683-8.502-2.683-12.074 0-9.777 7.343-16.104 19.028-16.104 32.197s6.327 24.854 16.104 32.197c3.572 2.683 8.502 2.683 12.074 0 9.777-7.343 16.104-19.028 16.104-32.197s-6.326-24.855-16.104-32.197z" fill="#693685"/></g></g></g><g><g><ellipse cx="76.034" cy="397.816" fill="#09a76d" rx="18.608" ry="110.447" transform="matrix(.966 -.259 .259 .966 -100.372 33.234)"/></g><g><path d="m78.905 402.632c-7.428-27.723-11.261-54.777-11.822-79.53-6.113-11.688-12.707-22.415-19.635-31.969-3.38 32.43-.17 71.261 10.612 111.5s27.418 75.473 46.56 101.868c1.051-10.087 1.463-20.794 1.21-31.969-10.776-20.605-20.046-44.226-26.925-69.9z" fill="#02905d"/></g><g><ellipse cx="210.777" cy="397.816" fill="#09a76d" rx="110.447" ry="18.608" transform="matrix(.259 -.966 .966 .259 -228.037 498.449)"/></g><g><path d="m209.332 399.666c7.784-29.05 18.629-55.469 31.255-77.859.194-10.705-.214-20.981-1.225-30.675-19.142 26.395-35.778 61.629-46.56 101.868s-13.992 79.07-10.612 111.5c5.323-7.339 10.441-15.385 15.304-24.008.456-25.107 4.279-52.615 11.838-80.826z" fill="#02905d"/></g></g></g><g><path d="m81.506 201.779c-1.608 11.305.791 22.454 6.637 31.849-3.517 2.739-5.984 6.771-6.637 11.37-1.608 11.305.791 22.454 6.637 31.849-3.517 2.739-5.984 6.771-6.637 11.37-2.138 15.03 2.783 29.796 13.501 40.513 9.072 9.073 21.046 13.992 33.624 13.991 1.309 0 2.625-.06 3.944-.167.098.075.19.156.289.23.959.72 1.982 1.316 3.041 1.813v85.383c0 4.142 3.357 7.5 7.5 7.5s7.5-3.358 7.5-7.5v-85.383c1.059-.498 2.082-1.093 3.041-1.813.099-.074.191-.155.289-.23 1.319.107 2.635.167 3.944.167 12.577 0 24.552-4.919 33.623-13.991 10.718-10.717 15.639-25.483 13.502-40.513-.654-4.6-3.121-8.632-6.638-11.371 5.846-9.394 8.245-20.543 6.637-31.848-.654-4.599-3.12-8.631-6.637-11.37 5.846-9.394 8.245-20.542 6.638-31.848-.654-4.6-3.121-8.632-6.638-11.371 5.846-9.394 8.245-20.542 6.638-31.848-.654-4.6-3.121-8.632-6.638-11.371 5.846-9.394 8.245-20.542 6.637-31.848-.654-4.599-3.121-8.631-6.637-11.37 5.846-9.394 8.245-20.543 6.637-31.848-1.092-7.683-7.222-13.813-14.905-14.907 0 0 0 0-.001 0-7.007-.997-13.954-.44-20.464 1.511 2.033-5.347 3.114-11.096 3.114-17.039 0-15.157-6.962-29.078-19.101-38.194h-.001c-6.205-4.66-14.874-4.66-21.081 0-12.139 9.116-19.101 23.038-19.101 38.194 0 5.942 1.08 11.69 3.113 17.037-6.508-1.951-13.453-2.507-20.464-1.51-.001 0-.001 0-.001 0-7.685 1.094-13.814 7.224-14.906 14.907-1.608 11.305.791 22.454 6.637 31.849-3.517 2.739-5.984 6.771-6.637 11.37-1.608 11.306.791 22.455 6.637 31.849-3.517 2.739-5.984 6.771-6.637 11.37-1.608 11.305.791 22.454 6.637 31.848-3.515 2.739-5.982 6.771-6.636 11.37zm22.219 71.052c-6.021-7.123-8.703-16.343-7.369-25.722.159-1.118 1.051-2.009 2.169-2.168 1.585-.226 3.165-.336 4.731-.336 4.394 0 8.679.875 12.649 2.555-1.4 4.528-2.141 9.303-2.141 14.211 0 4.504.634 8.893 1.818 13.084-3.836-1.032-7.813-1.584-11.857-1.624zm10.039-54.678c0 4.502.633 8.888 1.817 13.078-3.838-1.031-7.815-1.586-11.86-1.624-6.018-7.122-8.698-16.34-7.364-25.717.158-1.118 1.05-2.009 2.168-2.168 1.585-.226 3.164-.336 4.73-.336 4.394 0 8.68.876 12.65 2.555-1.4 4.529-2.141 9.303-2.141 14.212zm-8.15 99.969c-7.35-7.349-10.725-17.48-9.257-27.794.158-1.117 1.05-2.009 2.168-2.168 1.585-.226 3.165-.336 4.731-.336 4.394 0 8.679.875 12.649 2.555-1.4 4.528-2.141 9.303-2.141 14.212 0 7.678 1.793 15.035 5.134 21.615-4.932-1.552-9.481-4.28-13.284-8.084zm39.325 12.668c-.902.678-2.164.678-3.066 0-8.331-6.256-13.108-15.806-13.108-26.2 0-10.395 4.777-19.944 13.108-26.2.451-.339.992-.508 1.533-.508s1.082.169 1.533.508c8.331 6.256 13.108 15.806 13.108 26.2s-4.777 19.943-13.108 26.2zm25.967-83.63c3.969-1.679 8.255-2.554 12.649-2.554 1.566 0 3.146.111 4.731.336 1.117.159 2.009 1.05 2.168 2.168 1.334 9.379-1.347 18.599-7.369 25.722-4.044.04-8.02.592-11.857 1.625 1.185-4.192 1.818-8.58 1.818-13.085.001-4.909-.74-9.684-2.14-14.212zm10.291 70.963c-3.802 3.802-8.35 6.528-13.282 8.079 3.34-6.579 5.132-13.935 5.132-21.611 0-4.909-.741-9.684-2.141-14.212 3.969-1.679 8.255-2.554 12.649-2.554 1.566 0 3.146.111 4.731.336 1.117.159 2.009 1.05 2.168 2.168 1.467 10.314-1.907 20.445-9.257 27.794zm2.358-246.392c1.566 0 3.147.111 4.73.336 1.118.159 2.01 1.051 2.169 2.168 1.333 9.377-1.346 18.595-7.365 25.717-4.045.038-8.022.593-11.859 1.624 1.184-4.19 1.817-8.577 1.817-13.08 0-4.909-.741-9.684-2.141-14.212 3.97-1.678 8.255-2.553 12.649-2.553zm0 43.219c1.566 0 3.146.111 4.731.336 1.117.159 2.009 1.05 2.168 2.168 1.334 9.38-1.347 18.601-7.37 25.723-4.043.04-8.02.592-11.857 1.626 1.185-4.192 1.819-8.581 1.819-13.087 0-4.909-.741-9.684-2.141-14.212 3.971-1.679 8.256-2.554 12.65-2.554zm0 43.218c1.565 0 3.147.111 4.731.336 1.117.159 2.009 1.05 2.168 2.168 1.333 9.377-1.346 18.595-7.365 25.717-4.045.038-8.022.593-11.86 1.625 1.184-4.19 1.817-8.577 1.817-13.08 0-4.909-.741-9.684-2.141-14.212 3.971-1.679 8.256-2.554 12.65-2.554zm0 43.218c1.566 0 3.147.111 4.731.336 1.117.159 2.009 1.05 2.168 2.168 1.333 9.377-1.346 18.595-7.365 25.717-4.045.038-8.022.593-11.859 1.624 1.184-4.19 1.817-8.577 1.817-13.079 0-4.909-.741-9.684-2.141-14.212 3.97-1.678 8.255-2.554 12.649-2.554zm-41.684-185.896c.452-.339.993-.508 1.534-.508s1.082.169 1.533.508c8.331 6.256 13.108 15.806 13.108 26.2 0 3.647-.609 7.182-1.735 10.514-.766-.653-1.552-1.289-2.366-1.899-6.205-4.66-14.875-4.66-21.082 0-.813.611-1.599 1.247-2.366 1.899-1.126-3.332-1.735-6.867-1.735-10.514.002-10.395 4.779-19.944 13.109-26.2zm.001 46.808c.451-.339.992-.508 1.533-.508s1.082.169 1.533.508c8.331 6.256 13.108 15.805 13.108 26.2 0 2.624-.314 5.19-.906 7.666-1.025-.915-2.08-1.805-3.194-2.641-6.207-4.661-14.875-4.661-21.082 0-1.114.837-2.169 1.727-3.194 2.641-.592-2.475-.906-5.042-.906-7.666 0-10.395 4.777-19.944 13.108-26.2zm0 43.218c.451-.339.992-.508 1.533-.508s1.082.169 1.533.508c8.331 6.256 13.108 15.806 13.108 26.2 0 2.62-.314 5.182-.904 7.653-1.022-.914-2.085-1.794-3.197-2.629h-.001c-6.205-4.66-14.874-4.66-21.081 0-1.112.835-2.175 1.715-3.197 2.629-.59-2.472-.904-5.034-.904-7.653.002-10.394 4.779-19.943 13.11-26.2zm-.001 43.219c.452-.339.993-.508 1.534-.508s1.082.169 1.533.508c8.331 6.256 13.108 15.806 13.108 26.2 0 2.624-.314 5.19-.906 7.666-1.025-.915-2.08-1.805-3.194-2.641-6.205-4.66-14.875-4.661-21.082 0-1.114.836-2.169 1.727-3.194 2.641-.592-2.475-.906-5.042-.906-7.666 0-10.395 4.777-19.944 13.107-26.2zm.001 43.218c.451-.339.992-.508 1.533-.508s1.082.169 1.533.508c8.331 6.256 13.108 15.805 13.108 26.2 0 2.624-.314 5.19-.906 7.666-1.025-.915-2.08-1.805-3.194-2.641-6.205-4.66-14.875-4.66-21.082 0-1.114.836-2.169 1.727-3.194 2.641-.592-2.475-.906-5.042-.906-7.666 0-10.394 4.777-19.944 13.108-26.2zm0 43.219c.451-.339.992-.508 1.533-.508s1.082.169 1.533.508c8.331 6.256 13.108 15.805 13.108 26.2 0 2.62-.314 5.182-.904 7.653-1.022-.914-2.085-1.794-3.197-2.629-6.207-4.661-14.875-4.661-21.082 0-1.112.835-2.175 1.715-3.197 2.629-.59-2.472-.904-5.034-.904-7.653.002-10.395 4.779-19.945 13.11-26.2zm-28.108-60.237c0 4.502.633 8.889 1.817 13.078-3.838-1.031-7.815-1.586-11.86-1.624-6.018-7.122-8.698-16.34-7.364-25.717.158-1.117 1.05-2.009 2.168-2.168 1.585-.226 3.164-.336 4.73-.336 4.394 0 8.68.875 12.65 2.555-1.4 4.528-2.141 9.303-2.141 14.212zm1.819-30.133c-3.836-1.033-7.813-1.585-11.857-1.625-6.022-7.122-8.704-16.343-7.37-25.723.159-1.118 1.051-2.009 2.169-2.168 1.585-.226 3.165-.336 4.731-.336 4.394 0 8.679.875 12.649 2.555-1.4 4.528-2.141 9.303-2.141 14.211 0 4.505.634 8.894 1.819 13.086zm-19.227-70.566c.159-1.118 1.052-2.009 2.17-2.168h-.001c6.031-.857 11.993-.051 17.376 2.231-1.397 4.524-2.137 9.295-2.137 14.199 0 4.503.633 8.889 1.817 13.079-3.838-1.032-7.815-1.587-11.86-1.624-6.019-7.123-8.699-16.341-7.365-25.717z"/><path d="m461.244 497h-39.697c13.075-20.489 24.409-44.618 33.099-70.633 1.313-3.929-.809-8.178-4.737-9.49-3.928-1.311-8.177.809-9.489 4.737-7.242 21.679-16.367 41.946-26.812 59.671-.276-27.14 3.668-56.562 11.647-86.344 7.98-29.784 19.277-57.24 33.09-80.61.217 23.384-2.7 48.654-8.631 74.27-.935 4.036 1.579 8.064 5.615 8.999 4.034.936 8.063-1.58 8.998-5.615 8.253-35.646 10.916-70.789 7.702-101.63-.322-3.091-2.518-5.663-5.519-6.467-3-.803-6.188.326-8.013 2.842-20.521 28.299-37.026 64.375-47.731 104.329-9.866 36.822-13.804 73.243-11.528 105.941h-23.126v-152.403c1.059-.498 2.082-1.093 3.041-1.813.099-.074.191-.155.289-.23 1.319.107 2.635.167 3.944.167 12.578 0 24.552-4.919 33.623-13.991 10.719-10.717 15.64-25.484 13.503-40.513-.654-4.6-3.122-8.632-6.639-11.371 5.847-9.394 8.246-20.543 6.638-31.848-.654-4.599-3.121-8.631-6.638-11.37 5.847-9.394 8.246-20.543 6.639-31.848-.654-4.6-3.122-8.632-6.638-11.371 5.846-9.394 8.246-20.543 6.638-31.848-.654-4.6-3.122-8.632-6.638-11.371 5.846-9.394 8.245-20.543 6.637-31.849-.654-4.599-3.121-8.631-6.638-11.37 5.847-9.394 8.246-20.543 6.638-31.848-1.092-7.683-7.222-13.813-14.906-14.907 0 0 0 0-.001 0-7.01-.997-13.955-.441-20.463 1.51 2.033-5.347 3.113-11.095 3.113-17.037 0-15.157-6.962-29.078-19.101-38.194h-.001c-6.205-4.66-14.874-4.66-21.081 0-12.139 9.116-19.101 23.038-19.101 38.194 0 5.942 1.08 11.691 3.113 17.038-6.509-1.951-13.455-2.507-20.464-1.51-.001 0-.001 0-.001 0-7.684 1.094-13.813 7.224-14.905 14.907-1.608 11.306.791 22.454 6.637 31.848-3.516 2.739-5.983 6.771-6.637 11.37-1.608 11.306.791 22.455 6.637 31.849-3.516 2.739-5.983 6.771-6.637 11.37-1.608 11.306.791 22.454 6.636 31.848-3.516 2.739-5.983 6.771-6.636 11.37-1.608 11.306.791 22.455 6.637 31.848-3.516 2.739-5.983 6.771-6.637 11.37-1.608 11.306.791 22.455 6.637 31.849-3.516 2.739-5.983 6.771-6.637 11.37-2.138 15.03 2.783 29.797 13.5 40.513 9.072 9.073 21.046 13.992 33.624 13.991 1.309 0 2.625-.06 3.944-.167.098.075.19.156.289.23.959.72 1.982 1.316 3.041 1.813v152.404h-23.126c2.276-32.697-1.661-69.119-11.528-105.941-10.706-39.957-27.212-76.033-47.732-104.329-1.824-2.517-5.012-3.646-8.013-2.842s-5.196 3.376-5.519 6.467c-3.623 34.765.121 74.26 10.827 114.218 9.259 34.556 22.863 66.198 39.643 92.427h-119.31c16.78-26.229 30.384-57.871 39.643-92.427 10.706-39.958 14.45-79.453 10.827-114.218-.322-3.091-2.518-5.663-5.519-6.467-3.004-.803-6.188.327-8.013 2.842-20.521 28.296-37.026 64.372-47.732 104.33-9.866 36.822-13.803 73.244-11.528 105.941h-23.126v-32.019c0-4.142-3.357-7.5-7.5-7.5s-7.5 3.358-7.5 7.5v32.018h-23.129c1.991-28.863-.891-61.024-8.462-93.617-.938-4.035-4.971-6.542-9.003-5.608-4.034.938-6.546 4.968-5.608 9.003 5.972 25.705 8.908 51.063 8.691 74.523-13.811-23.367-25.109-50.826-33.091-80.61-7.979-29.78-11.924-59.203-11.647-86.344 10.407 17.66 19.505 37.842 26.731 59.424 1.315 3.928 5.565 6.046 9.494 4.73 3.928-1.315 6.045-5.565 4.73-9.493-10.426-31.133-24.636-59.585-41.093-82.278-1.824-2.517-5.012-3.646-8.013-2.842s-5.196 3.376-5.519 6.467c-3.623 34.767.121 74.263 10.827 114.218 9.259 34.556 22.863 66.198 39.643 92.427h-39.681c-4.143 0-7.5 3.358-7.5 7.5s3.357 7.5 7.5 7.5h410.469c4.143 0 7.5-3.358 7.5-7.5s-3.358-7.5-7.5-7.5zm-107.273-278.847c0-10.395 4.777-19.944 13.108-26.2.451-.339.992-.508 1.533-.508s1.082.169 1.533.508c8.331 6.256 13.108 15.805 13.108 26.2 0 2.62-.314 5.182-.904 7.653-1.022-.914-2.085-1.794-3.197-2.629-6.206-4.66-14.876-4.66-21.082 0-1.112.835-2.175 1.715-3.197 2.629-.588-2.471-.902-5.033-.902-7.653zm0-43.218c0-10.395 4.777-19.944 13.107-26.2.452-.339.993-.508 1.534-.508s1.082.169 1.533.508c8.331 6.256 13.108 15.806 13.108 26.2 0 2.62-.314 5.182-.904 7.653-1.022-.914-2.085-1.794-3.197-2.629-6.206-4.66-14.876-4.661-21.082 0-1.112.835-2.175 1.715-3.197 2.629-.588-2.472-.902-5.034-.902-7.653zm29.283-43.219c0 2.62-.314 5.182-.904 7.653-1.022-.914-2.085-1.794-3.197-2.629h-.001c-6.205-4.66-14.874-4.66-21.081 0-1.112.835-2.175 1.715-3.197 2.629-.59-2.472-.904-5.034-.904-7.653 0-10.394 4.777-19.943 13.108-26.2.451-.339.992-.508 1.533-.508s1.082.169 1.533.508c8.333 6.257 13.11 15.806 13.11 26.2zm25.038 97.898c-4.044.04-8.02.592-11.856 1.625 1.185-4.192 1.818-8.581 1.818-13.085 0-4.909-.741-9.684-2.141-14.212 3.97-1.679 8.255-2.555 12.65-2.555 1.565 0 3.146.111 4.73.336 1.118.159 2.01 1.05 2.169 2.168 1.334 9.38-1.347 18.6-7.37 25.723zm.001-43.22c-4.044.039-8.021.591-11.857 1.624 1.185-4.191 1.818-8.579 1.818-13.083 0-4.909-.741-9.684-2.141-14.212 3.97-1.679 8.256-2.555 12.65-2.555 1.565 0 3.146.111 4.73.336 1.118.159 2.01 1.051 2.169 2.168 1.334 9.38-1.347 18.599-7.369 25.722zm0-43.218c-4.049.04-8.029.592-11.87 1.627 1.189-4.192 1.831-8.58 1.831-13.087 0-4.909-.741-9.683-2.141-14.212 3.97-1.679 8.255-2.554 12.649-2.554 1.566 0 3.147.111 4.731.336 1.118.159 2.01 1.05 2.169 2.168 1.334 9.38-1.347 18.6-7.369 25.722zm-25.039-54.678c0 2.624-.314 5.19-.906 7.666-1.025-.915-2.08-1.805-3.194-2.641-6.207-4.661-14.875-4.661-21.082 0-1.114.837-2.169 1.727-3.194 2.641-.592-2.475-.906-5.042-.906-7.666 0-10.395 4.777-19.944 13.108-26.2.451-.339.992-.508 1.533-.508s1.082.169 1.533.508c8.331 6.256 13.108 15.805 13.108 26.2zm-61.69 28.956c.159-1.118 1.051-2.009 2.168-2.168 1.586-.226 3.165-.336 4.731-.336 4.394 0 8.679.875 12.649 2.555-1.4 4.528-2.141 9.303-2.141 14.211 0 4.508.642 8.896 1.831 13.089-3.841-1.035-7.822-1.588-11.87-1.628-6.021-7.122-8.702-16.343-7.368-25.723zm.001 43.219c.158-1.118 1.05-2.009 2.167-2.168 1.585-.226 3.165-.336 4.731-.336 4.394 0 8.679.875 12.649 2.555-1.4 4.528-2.141 9.303-2.141 14.212 0 4.504.634 8.893 1.818 13.084-3.837-1.033-7.814-1.585-11.858-1.625-6.02-7.123-8.701-16.343-7.366-25.722zm0 43.218c.158-1.118 1.05-2.009 2.167-2.168 1.585-.226 3.165-.336 4.731-.336 4.394 0 8.679.875 12.649 2.555-1.4 4.528-2.141 9.303-2.141 14.212 0 4.505.634 8.894 1.819 13.086-3.837-1.033-7.813-1.585-11.857-1.625-6.022-7.124-8.703-16.344-7.368-25.724zm45.514 31.281c.451-.339.992-.508 1.533-.508s1.082.169 1.533.508c8.331 6.256 13.108 15.805 13.108 26.2 0 2.624-.314 5.19-.906 7.666-1.025-.915-2.08-1.805-3.194-2.641-6.207-4.661-14.875-4.661-21.082 0-1.114.837-2.169 1.727-3.194 2.641-.592-2.475-.906-5.042-.906-7.666 0-10.395 4.777-19.945 13.108-26.2zm39.325 82.951c-3.802 3.802-8.351 6.53-13.282 8.08 3.34-6.579 5.133-13.936 5.133-21.613 0-4.909-.741-9.684-2.141-14.212 3.969-1.679 8.255-2.554 12.649-2.554 1.566 0 3.147.111 4.731.336 1.118.159 2.01 1.051 2.169 2.168 1.466 10.314-1.909 20.445-9.259 27.795zm1.893-45.297c-4.045.038-8.022.593-11.859 1.624 1.184-4.19 1.817-8.576 1.817-13.079 0-4.909-.741-9.684-2.141-14.212 3.97-1.679 8.255-2.554 12.649-2.554 1.566 0 3.147.111 4.731.336 1.118.159 2.01 1.05 2.169 2.168 1.333 9.377-1.347 18.595-7.366 25.717zm5.196-200.758c1.118.159 2.011 1.051 2.17 2.168 1.333 9.377-1.347 18.595-7.366 25.717-4.049.038-8.03.594-11.872 1.628 1.188-4.191 1.83-8.578 1.83-13.084 0-4.909-.741-9.684-2.141-14.212 3.97-1.68 8.255-2.555 12.65-2.555 1.564.001 3.146.113 4.729.338zm-46.415-56.578c.452-.339.993-.508 1.534-.508s1.082.169 1.533.508c8.331 6.256 13.108 15.806 13.108 26.2 0 3.647-.609 7.182-1.735 10.514-.766-.653-1.552-1.289-2.366-1.899-6.206-4.66-14.876-4.66-21.082 0-.813.611-1.599 1.247-2.365 1.899-1.126-3.332-1.735-6.867-1.735-10.514.001-10.395 4.778-19.944 13.108-26.2zm-45.514 58.746c.159-1.118 1.051-2.009 2.169-2.168h-.001c6.032-.857 11.994-.051 17.376 2.231-1.397 4.525-2.137 9.295-2.137 14.2 0 4.506.641 8.892 1.83 13.083-3.842-1.034-7.823-1.59-11.873-1.628-6.018-7.123-8.698-16.341-7.364-25.718zm0 172.874c.159-1.118 1.051-2.009 2.168-2.168 1.586-.226 3.165-.336 4.731-.336 4.394 0 8.679.875 12.649 2.555-1.4 4.528-2.141 9.303-2.141 14.211 0 4.503.633 8.889 1.817 13.079-3.838-1.032-7.815-1.586-11.86-1.624-6.018-7.123-8.698-16.34-7.364-25.717zm9.257 71.012c-7.35-7.349-10.724-17.479-9.256-27.794.158-1.118 1.05-2.009 2.167-2.168 1.586-.226 3.165-.336 4.731-.336 4.394 0 8.679.875 12.649 2.555-1.4 4.528-2.141 9.303-2.141 14.212 0 7.678 1.793 15.035 5.134 21.614-4.932-1.551-9.481-4.28-13.284-8.083zm23.15-13.532c0-10.395 4.777-19.944 13.108-26.2.451-.339.992-.508 1.533-.508s1.082.169 1.533.508c8.331 6.256 13.108 15.806 13.108 26.2s-4.777 19.943-13.108 26.2c-.902.678-2.164.678-3.066 0-8.331-6.257-13.108-15.806-13.108-26.2zm-63.46 96.101c-7.983-29.796-11.927-59.236-11.646-86.386 13.818 23.373 25.122 50.84 33.106 80.636 7.983 29.796 11.927 59.236 11.646 86.386-13.818-23.373-25.122-50.84-33.106-80.636zm-90.464-5.75c7.984-29.796 19.288-57.264 33.106-80.637.28 27.15-3.663 56.59-11.646 86.386-7.984 29.796-19.288 57.264-33.106 80.637-.281-27.15 3.663-56.59 11.646-86.386z"/></g></g></svg>