<svg id="Capa_1" enable-background="new 0 0 512 512" height="512" viewBox="0 0 512 512" width="512" xmlns="http://www.w3.org/2000/svg"><g><g><g><g><path d="m138.275 209.064c1.92-1.92 5.057-1.875 6.911.109 4.757 5.091 9.071 10.437 12.953 15.98 1.722 2.459 5.227 2.796 7.35.673l9.557-9.557c1.919-1.919 5.056-1.878 6.907.106 8.415 9.019 15.443 18.894 21.098 29.368 1.522 2.819 5.34 3.356 7.605 1.091l4.514-4.514c1.918-1.918 5.059-1.882 6.904.107 18.3 19.73 29.536 43.994 33.925 70.048 4.39-26.054 15.625-50.318 33.925-70.048 1.845-1.989 4.986-2.025 6.904-.107l4.514 4.514c2.265 2.265 6.083 1.728 7.605-1.091 5.655-10.474 12.682-20.349 21.098-29.368 1.851-1.984 4.988-2.025 6.907-.106l9.557 9.557c2.123 2.123 5.628 1.785 7.35-.673 3.882-5.543 8.196-10.888 12.953-15.98 1.853-1.984 4.991-2.028 6.911-.109l.206.206c2.542-9.426 4.058-19.192 4.435-29.206.102-2.711-2.094-4.958-4.807-4.958h-6.384c-3.204 0-5.523-3.08-4.606-6.149 3.408-11.405 5.421-23.356 5.848-35.685.094-2.712-2.096-4.959-4.809-4.959h-13.516c-3.002 0-5.242-2.717-4.721-5.673 1.174-6.665 1.904-13.495 2.14-20.459.092-2.713-2.095-4.963-4.81-4.963h-16.495c-2.379 0-4.385-1.745-4.745-4.096-5.726-37.408-30.767-67.92-63.889-79.581-1.015-.357-2.129-.357-3.144 0-33.122 11.661-58.163 42.173-63.889 79.581-.36 2.352-2.366 4.096-4.745 4.096h-16.495c-2.715 0-4.902 2.25-4.81 4.963.236 6.964.966 13.794 2.14 20.459.521 2.956-1.719 5.673-4.721 5.673h-13.516c-2.713 0-4.903 2.247-4.809 4.959.427 12.328 2.44 24.28 5.848 35.685.917 3.07-1.403 6.149-4.606 6.149h-6.384c-2.713 0-4.908 2.247-4.807 4.958.377 10.014 1.893 19.779 4.435 29.206z" fill="#09a76d"/><g><path d="m138.275 209.064c1.92-1.92 5.057-1.875 6.911.109 4.757 5.091 9.071 10.437 12.953 15.98 1.722 2.459 5.227 2.796 7.35.673l9.557-9.557c1.865-1.865 4.873-1.863 6.74-.039-3.803-11.549-6.05-23.663-6.52-36.165-.102-2.711 2.094-4.958 4.807-4.958h6.383c3.204 0 5.524-3.08 4.606-6.149-3.408-11.405-5.421-23.356-5.848-35.685-.094-2.712 2.096-4.959 4.809-4.959h13.516c3.002 0 5.242-2.717 4.721-5.673-1.174-6.665-1.904-13.495-2.14-20.459-.092-2.713 2.095-4.963 4.81-4.963h16.495c2.379 0 4.385-1.745 4.745-4.096 4.552-29.741 21.321-55.111 44.646-70.126-6.013-3.871-12.455-7.065-19.244-9.455-1.015-.357-2.129-.357-3.144 0-33.122 11.661-58.163 42.173-63.889 79.581-.36 2.352-2.366 4.096-4.745 4.096h-16.495c-2.715 0-4.902 2.25-4.81 4.963.236 6.964.966 13.794 2.14 20.459.521 2.956-1.719 5.673-4.721 5.673h-13.516c-2.713 0-4.903 2.247-4.809 4.959.427 12.328 2.44 24.28 5.848 35.685.917 3.07-1.403 6.149-4.606 6.149h-6.384c-2.713 0-4.908 2.247-4.807 4.958.376 10.014 1.893 19.779 4.435 29.206z" fill="#02905d"/></g></g></g></g><g><g><g><g><path d="m256 312.475c-4.39-26.054-15.625-50.318-33.925-70.048-1.845-1.989-4.986-2.025-6.904-.107l-4.514 4.514c-2.265 2.265-6.083 1.728-7.605-1.091-5.655-10.474-12.682-20.349-21.098-29.368-1.851-1.984-4.988-2.025-6.907-.106l-9.557 9.557c-2.123 2.123-5.628 1.785-7.35-.673-3.882-5.543-8.196-10.888-12.953-15.98-1.853-1.984-4.991-2.028-6.911-.109l-11.664 11.664c-1.682 1.682-4.334 1.867-6.252.458-30.5-22.402-69.783-26.271-101.449-11.096-.97.465-1.758 1.253-2.223 2.223-15.175 31.667-11.307 70.95 11.096 101.45 1.408 1.917 1.224 4.569-.458 6.252l-11.664 11.664c-1.92 1.92-1.875 5.057.109 6.911 5.091 4.757 10.437 9.071 15.979 12.953 2.459 1.722 2.796 5.227.673 7.35l-9.557 9.557c-1.919 1.919-1.878 5.056.106 6.907 9.019 8.415 18.894 15.443 29.368 21.098 2.819 1.522 3.356 5.34 1.091 7.605l-4.514 4.514c-1.918 1.918-1.882 5.06.107 6.904 47.576 44.128 121.508 47.221 183.36 12.135.76-.431 1.394-1.065 1.826-1.826 11.156-19.666 18.446-40.554 21.79-61.427-2.812-17.551-2.83-35.089 0-51.885z" fill="#09a76d"/><g><path d="m80.524 394.488c-1.989-1.845-2.025-4.986-.107-6.904l4.514-4.514c2.265-2.265 1.728-6.084-1.091-7.605-10.474-5.655-20.349-12.682-29.368-21.098-1.984-1.851-2.025-4.988-.106-6.907l9.557-9.557c2.123-2.123 1.785-5.628-.673-7.35-5.543-3.883-10.888-8.196-15.979-12.953-1.984-1.853-2.028-4.991-.109-6.911l11.664-11.664c1.682-1.682 1.867-4.334.458-6.252-19.883-27.07-25.153-61.054-15.481-90.496-8.602 1.422-16.984 4.024-24.892 7.813-.97.465-1.758 1.253-2.223 2.223-15.175 31.667-11.307 70.95 11.096 101.45 1.408 1.917 1.224 4.569-.458 6.252l-11.664 11.664c-1.919 1.92-1.875 5.057.109 6.911 5.091 4.757 10.437 9.071 15.979 12.953 2.459 1.722 2.796 5.227.673 7.35l-9.557 9.557c-1.919 1.919-1.878 5.056.106 6.907 9.019 8.415 18.894 15.443 29.368 21.098 2.819 1.522 3.356 5.34 1.091 7.605l-4.514 4.514c-1.918 1.918-1.882 5.06.107 6.904 47.576 44.128 121.508 47.221 183.36 12.135.76-.431 1.394-1.065 1.826-1.826 1.301-2.294 2.544-4.607 3.74-6.932-55.631 21.238-116.351 13.731-157.426-24.367z" fill="#02905d"/></g></g></g></g><g><g><g><g><path d="m308.949 245.743c5.655-10.474 12.682-20.348 21.098-29.368 1.851-1.984 4.988-2.025 6.907-.106l9.557 9.557c2.123 2.123 5.628 1.785 7.35-.673 3.883-5.543 8.196-10.888 12.953-15.98 1.853-1.984 4.991-2.028 6.911-.109l11.664 11.664c1.682 1.682 4.334 1.867 6.252.459 30.5-22.402 69.783-26.271 101.449-11.096.97.465 1.758 1.253 2.223 2.223 15.175 31.666 11.306 70.949-11.096 101.449-1.408 1.917-1.224 4.569.459 6.252l11.664 11.664c1.92 1.92 1.875 5.057-.109 6.911-5.091 4.757-10.437 9.071-15.98 12.953-2.459 1.722-2.796 5.227-.673 7.35l9.557 9.557c1.919 1.919 1.878 5.056-.106 6.907-9.019 8.415-18.894 15.443-29.368 21.098-2.819 1.522-3.356 5.34-1.091 7.605l4.514 4.514c1.918 1.918 1.882 5.06-.107 6.904-47.576 44.128-121.508 47.221-183.36 12.135-.761-.431-1.394-1.065-1.826-1.826-35.087-61.852-31.993-135.784 12.135-183.36 1.845-1.989 4.986-2.025 6.904-.107l4.514 4.514c2.265 2.265 6.083 1.728 7.605-1.091z" fill="#09a76d"/></g><g><path d="m300.425 283.437c1.845-1.989 4.986-2.025 6.904-.107l4.514 4.514c2.265 2.265 6.083 1.728 7.605-1.091 5.655-10.474 12.682-20.348 21.098-29.368 1.851-1.984 4.988-2.025 6.907-.106l9.557 9.557c2.123 2.123 5.628 1.785 7.35-.673 3.882-5.543 8.196-10.888 12.953-15.98 1.853-1.984 4.991-2.028 6.911-.109l11.664 11.664c1.682 1.682 4.334 1.867 6.252.459 30.5-22.402 69.783-26.271 101.449-11.096.287.137.551.311.802.501-.191-13.603-3.199-27.017-9.079-39.287-.465-.97-1.253-1.758-2.223-2.223-31.666-15.175-70.949-11.306-101.449 11.096-1.917 1.408-4.57 1.224-6.252-.459l-11.664-11.664c-1.92-1.92-5.057-1.875-6.911.109-4.757 5.091-9.071 10.437-12.953 15.98-1.722 2.459-5.227 2.796-7.35.673l-9.557-9.557c-1.919-1.919-5.056-1.878-6.907.106-8.415 9.019-15.443 18.894-21.098 29.368-1.522 2.819-5.34 3.356-7.605 1.091l-4.514-4.514c-1.918-1.918-5.059-1.882-6.904.107-38.226 41.213-45.653 102.201-24.151 157.983-5.615-43.101 5.665-85.723 34.651-116.974z" fill="#02905d"/></g></g></g></g></g><path d="m491.603 316.337c22.754-32.302 26.801-73.191 10.473-107.264-1.2-2.506-3.242-4.547-5.746-5.746-34.072-16.328-74.963-12.28-107.264 10.472l-6.846-6.846c2.061-8.667 3.3-17.56 3.64-26.608.124-3.308-1.125-6.575-3.426-8.963-2.312-2.399-5.546-3.775-8.876-3.775h-2.805c3.026-11.111 4.76-22.556 5.158-34.075.115-3.308-1.141-6.573-3.444-8.957-2.309-2.39-5.538-3.761-8.86-3.761h-10.333c.942-6.083 1.524-12.25 1.732-18.379.111-3.31-1.146-6.575-3.45-8.959-2.309-2.388-5.536-3.757-8.855-3.757h-14.197c-1.685-9.686-4.623-19.092-8.748-27.994-1.741-3.758-6.199-5.393-9.958-3.651s-5.394 6.2-3.651 9.958c3.852 8.312 6.51 17.135 7.901 26.226.929 6.061 6.042 10.46 12.158 10.46h13.686c-.302 5.561-.941 11.139-1.907 16.621-.636 3.611.349 7.288 2.699 10.089 2.339 2.787 5.769 4.385 9.408 4.385h10.703c-.583 10.504-2.4 20.917-5.412 30.997-1.119 3.748-.42 7.699 1.92 10.839 2.312 3.104 6.003 4.957 9.873 4.957h3.556c-.365 5.996-1.175 11.913-2.398 17.726-2.66.44-5.146 1.736-6.999 3.719-4.185 4.477-8.134 9.249-11.771 14.219l-7.307-7.307c-2.35-2.349-5.588-3.658-8.926-3.604-3.315.058-6.511 1.479-8.768 3.898-7.865 8.428-14.731 17.747-20.447 27.742l-1.984-1.985c-2.355-2.354-5.608-3.667-8.946-3.605-3.315.063-6.508 1.49-8.759 3.917-8.337 8.988-15.315 18.938-20.927 29.597v-90.067c22.898-3.611 40.465-23.478 40.465-47.374 0-4.142-3.357-7.5-7.5-7.5s-7.5 3.358-7.5 7.5c0 15.596-10.891 28.688-25.465 32.094v-88.532c0-4.142-3.357-7.5-7.5-7.5s-7.5 3.358-7.5 7.5v46.801c-11.193-3.256-19.398-13.597-19.398-25.826 0-4.142-3.357-7.5-7.5-7.5s-7.5 3.358-7.5 7.5c0 20.542 14.864 37.666 34.398 41.212v73.544c-23.437-3.305-41.438-21.845-41.438-44.153 0-4.142-3.357-7.5-7.5-7.5s-7.5 3.358-7.5 7.5c0 30.537 24.706 55.775 56.438 59.253v43.071c-5.613-10.667-12.585-20.627-20.927-29.621-2.251-2.426-5.443-3.854-8.759-3.916-.076-.001-.152-.002-.229-.002-3.25 0-6.416 1.308-8.719 3.609l-1.982 1.984c-5.716-9.996-12.583-19.314-20.446-27.741-2.258-2.42-5.453-3.842-8.769-3.899-3.317-.049-6.575 1.256-8.927 3.605l-7.306 7.306c-3.637-4.97-7.587-9.742-11.771-14.219-1.853-1.983-4.339-3.28-6.999-3.719-1.223-5.813-2.033-11.73-2.398-17.726h3.556c3.87 0 7.562-1.853 9.873-4.957 2.34-3.141 3.039-7.091 1.92-10.839-3.012-10.079-4.829-20.493-5.412-30.997h10.703c3.64 0 7.069-1.598 9.408-4.385 2.351-2.801 3.335-6.478 2.699-10.089-.966-5.482-1.605-11.061-1.907-16.621h13.686c6.116 0 11.229-4.399 12.159-10.462 5.225-34.135 27.428-62.136 58.047-73.312 11.691 4.275 22.627 11.33 31.679 20.444 2.919 2.94 7.668 2.956 10.606.036 2.938-2.918 2.955-7.667.036-10.606-10.872-10.947-24.102-19.368-38.26-24.352-2.618-.922-5.504-.922-8.124 0-35.639 12.547-61.691 44.323-68.441 83.252h-14.197c-3.319 0-6.547 1.369-8.855 3.757-2.305 2.384-3.562 5.65-3.45 8.96.208 6.128.79 12.295 1.732 18.378h-10.333c-3.322 0-6.552 1.371-8.86 3.761-2.304 2.384-3.56 5.649-3.444 8.957.398 11.519 2.132 22.963 5.158 34.075h-2.805c-3.33 0-6.564 1.376-8.876 3.775-2.301 2.389-3.55 5.656-3.426 8.964.34 9.048 1.579 17.94 3.64 26.607l-6.847 6.846c-8.303-5.844-17.321-10.523-26.842-13.925-3.9-1.395-8.192.638-9.586 4.539-1.394 3.9.639 8.192 4.539 9.586 8.867 3.168 17.236 7.62 24.877 13.232 4.942 3.629 11.67 3.125 15.993-1.201l9.679-9.677c3.716 4.143 7.209 8.54 10.403 13.1 2.103 3.003 5.397 4.908 9.04 5.227 3.625.32 7.182-.977 9.757-3.552l7.567-7.568c7.016 7.841 13.095 16.49 18.092 25.746 1.858 3.442 5.147 5.741 9.022 6.307 3.833.556 7.75-.741 10.485-3.477l2.515-2.515c15.757 17.798 25.776 39.612 29.925 63.199-2.642 16.657-2.653 34.038.009 51.511-2.815 16.869-8.372 33.826-16.681 50.191l-23.984-23.984c10.511-12.707 16.596-28.169 17.283-44.254.802-18.753-5.793-36.117-18.567-48.892-2.93-2.929-7.678-2.929-10.607 0s-2.929 7.678 0 10.606c9.77 9.77 14.809 23.139 14.188 37.645-.527 12.337-5.088 24.248-12.968 34.223l-47.467-47.467c5.95-8.148 9.169-17.926 9.169-28.198 0-12.806-4.992-24.851-14.058-33.916-2.93-2.93-7.678-2.929-10.607 0s-2.929 7.678.001 10.606c6.232 6.232 9.664 14.51 9.664 23.31 0 6.245-1.737 12.223-4.969 17.398l-62.608-62.608c-2.93-2.929-7.678-2.929-10.607 0s-2.929 7.678 0 10.606l33.235 33.235c-12.713 7.897-29.672 6.34-40.699-4.688-2.93-2.93-7.678-2.929-10.607 0s-2.929 7.678.001 10.606c9.351 9.351 21.633 14.026 33.915 14.026 9.913 0 19.824-3.05 28.195-9.14l51.936 51.936c-18.909 14.234-44.749 13.853-60.521-1.92-2.93-2.929-7.678-2.929-10.607 0s-2.929 7.678 0 10.606c11.109 11.109 25.849 16.605 40.936 16.605 14.239 0 28.782-4.911 40.872-14.611l48.876 48.875c-57.6 29.246-122.591 24.206-164.901-13.252l2.516-2.515c2.736-2.737 4.036-6.658 3.477-10.487-.566-3.875-2.866-7.163-6.309-9.021-9.253-4.996-17.901-11.074-25.744-18.091l7.567-7.568c2.574-2.573 3.869-6.128 3.553-9.752-.317-3.644-2.222-6.939-5.226-9.045-4.56-3.194-8.957-6.686-13.102-10.404l9.678-9.677c4.324-4.325 4.829-11.052 1.199-15.995-20.443-27.832-24.543-63.33-10.794-92.885 11.181-5.201 23.313-7.87 36.077-7.936 4.143-.021 7.483-3.396 7.462-7.539-.021-4.129-3.375-7.461-7.499-7.461-.013 0-.026 0-.039 0-15.336.079-29.926 3.384-43.363 9.824-2.506 1.2-4.548 3.241-5.748 5.746-16.328 34.073-12.281 74.963 10.473 107.264l-10.039 10.039c-2.347 2.348-3.661 5.598-3.604 8.919.057 3.315 1.477 6.513 3.896 8.775 4.479 4.186 9.253 8.135 14.22 11.77l-7.306 7.306c-2.35 2.349-3.664 5.602-3.606 8.925.057 3.314 1.478 6.511 3.898 8.771 8.43 7.865 17.748 14.731 27.741 20.446l-1.983 1.984c-2.354 2.355-3.669 5.615-3.606 8.946.063 3.316 1.489 6.508 3.916 8.76 27.16 25.191 63.067 38.019 100.947 38.019 28.98 0 59.11-7.529 87.362-22.753l16.265 16.27v46.215c0 4.142 3.357 7.5 7.5 7.5s7.5-3.358 7.5-7.5v-46.215l16.26-16.26c22.836 12.29 47.806 19.918 72.493 22.101.226.02.448.03.67.03 3.843 0 7.117-2.938 7.462-6.84.365-4.126-2.684-7.767-6.81-8.131-21.245-1.879-42.75-8.173-62.697-18.279l48.877-48.877c12.09 9.701 26.631 14.611 40.873 14.611 15.085 0 29.828-5.498 40.936-16.605 2.929-2.929 2.929-7.678 0-10.606-2.93-2.929-7.678-2.929-10.607 0-15.772 15.774-41.612 16.155-60.521 1.92l27.451-27.451c.002-.002.003-.003.005-.004s.003-.003.004-.005l24.475-24.475c8.371 6.091 18.282 9.14 28.195 9.14 12.282 0 24.564-4.675 33.915-14.026 2.93-2.929 2.93-7.677.001-10.606s-7.677-2.93-10.607 0c-11.026 11.027-27.986 12.584-40.699 4.687l33.235-33.235c2.929-2.929 2.929-7.678 0-10.606-2.93-2.929-7.678-2.929-10.607 0l-62.608 62.608c-3.232-5.175-4.969-11.153-4.969-17.398 0-8.799 3.432-17.077 9.664-23.31 2.93-2.929 2.93-7.677.001-10.606s-7.677-2.929-10.607 0c-9.065 9.065-14.058 21.11-14.058 33.916 0 10.272 3.219 20.05 9.169 28.198l-47.467 47.467c-7.881-9.975-12.442-21.886-12.968-34.223-.62-14.506 4.419-27.875 14.188-37.645 2.929-2.929 2.929-7.678 0-10.606-2.93-2.929-7.678-2.929-10.607 0-12.774 12.775-19.369 30.138-18.567 48.892.687 16.085 6.772 31.547 17.283 44.254l-23.984 23.984c-29.246-57.6-24.206-122.59 13.253-164.901l2.515 2.514c2.735 2.737 6.65 4.033 10.485 3.477 3.875-.566 7.164-2.865 9.023-6.308 4.996-9.255 11.074-17.903 18.091-25.745l7.568 7.568c2.575 2.575 6.138 3.867 9.756 3.552 3.643-.319 6.938-2.225 9.039-5.226 3.195-4.562 6.688-8.958 10.404-13.102l9.678 9.677c4.324 4.325 11.052 4.831 15.995 1.2 27.834-20.441 63.33-24.542 92.886-10.793 13.749 29.554 9.649 65.053-10.794 92.885-3.63 4.943-3.125 11.669 1.2 15.995l9.677 9.677c-4.145 3.718-8.542 7.21-13.104 10.405-3.002 2.104-4.906 5.4-5.224 9.043-.316 3.624.979 7.179 3.552 9.751l7.568 7.568c-7.843 7.017-16.491 13.095-25.744 18.091-3.442 1.858-5.742 5.146-6.309 9.021-.56 3.83.74 7.75 3.477 10.487l2.516 2.515c-18.849 16.688-42.594 27.337-68.861 30.851-4.105.549-6.989 4.322-6.439 8.428.549 4.106 4.327 6.991 8.428 6.439 30.339-4.058 57.715-16.721 79.17-36.62 2.426-2.25 3.853-5.443 3.915-8.759.063-3.331-1.252-6.591-3.606-8.946l-1.983-1.983c9.993-5.715 19.312-12.582 27.742-20.447 2.42-2.258 3.841-5.455 3.897-8.77.058-3.323-1.257-6.576-3.605-8.924l-7.307-7.307c4.968-3.635 9.74-7.585 14.221-11.771 2.419-2.261 3.839-5.459 3.896-8.774.057-3.321-1.258-6.571-3.605-8.919zm-222.454 109.31-13.149 13.149-13.162-13.162c5.324-9.883 9.711-19.991 13.155-30.204 3.446 10.216 7.829 20.331 13.156 30.217z"/></g></svg>