<svg id="Capa_1" enable-background="new 0 0 512 512" height="512" viewBox="0 0 512 512" width="512" xmlns="http://www.w3.org/2000/svg"><g><path d="m310.775 482.713-5.98-41.49-6.52 5.985-14.094-12.938-14.089 12.934-14.092-12.938-14.089 12.934-10.847-9.958c2.618 19.673-5.804 39.153-20.998 51.042h95.884c2.969 0 5.249-2.632 4.825-5.571z" fill="#ffbd86"/><g><path d="m299.818 291.807c-3.39 2.684-7.666 4.298-12.326 4.298-1.251 0-2.474-.119-3.66-.341l4.875 33.825c.975.147 1.965.247 2.982.247 10.985 0 19.89-8.905 19.89-19.89-.001-8.084-4.834-15.029-11.761-18.139z" fill="#a44f3e"/><path d="m224.508 296.106c-4.66 0-8.936-1.614-12.326-4.298-6.928 3.11-11.76 10.054-11.76 18.14 0 10.985 8.905 19.89 19.89 19.89 1.016 0 2.006-.1 2.982-.247l4.876-33.835c-1.189.22-2.409.35-3.662.35z" fill="#883f2e"/></g><g><g><path d="m271.746 288.335c-3.637 4.718-9.328 7.77-15.746 7.77s-12.109-3.052-15.746-7.77c-2.927 3.797-7.184 6.506-12.085 7.419l-3.551 24.636.033-.229 3.166-2.906 14.094 12.938 14.089-12.934 14.094 12.938 14.089-12.934 3.167 2.907-3.519-24.415c-4.901-.913-9.158-3.622-12.085-7.42z" fill="#ffbd86"/></g><path d="m299.512 404.565-13.312-12.221-15.134 13.893-15.139-13.898-15.134 13.893-15.139-13.898-10.265 9.423 8.666 15.034c3.82 6.627 6.089 13.55 7.007 20.45l10.847 9.958 14.091-12.933 14.094 12.938 14.089-12.934 14.094 12.938 6.52-5.985z" fill="#f6a96c"/></g><g><path d="m218.174 365.11 9.643-8.853 14.094 12.938 14.089-12.934 14.094 12.938 14.089-12.934 9.645 8.854v.001l-6.479-44.95-3.166-2.907-14.089 12.934-14.094-12.938-14.089 12.934-14.094-12.938-3.165 2.906z" fill="#f6a96c"/></g><path d="m293.828 365.119-9.645-8.854-14.089 12.934-14.094-12.938-14.089 12.934-14.094-12.938-9.643 8.853-4.782 33.181 1.998 3.467 10.265-9.424 15.139 13.898 15.134-13.893 15.138 13.897 15.134-13.893 13.312 12.221z" fill="#ffbd86"/><g><g><path d="m256 128.802c3.956-14.302 9.177-27.818 15.456-40.398v-78.945c0-1.879-2.406-2.681-3.521-1.169-14.731 19.973-25.907 44.119-32.282 70.862 8.49 15.123 15.404 31.778 20.347 49.65z" fill="#017b4e"/></g><g><path d="m256.498 130.593c6.264 23.378 8.548 46.656 7.356 68.816 4.843-17.032 11.943-34.029 21.425-50.451 4.482-7.764 9.341-15.133 14.52-22.091l27.55-102.818c.486-1.815-1.63-3.212-3.098-2.04-30.895 24.653-55.823 61.86-68.251 106.793.165.598.338 1.191.498 1.791z" fill="#09a76d"/></g><g><path d="m256.498 130.593c-12.255-45.737-37.443-83.603-68.748-108.585-1.468-1.172-3.585.226-3.098 2.04l27.55 102.818c5.179 6.958 10.037 14.327 14.52 22.091 16.114 27.91 25.406 57.476 28.293 86.064-.057-.063-.118-.123-.176-.186.406.439.797.891 1.162 1.365.955-1.239 2.043-2.369 3.259-3.352 7.14-31.456 6.752-66.749-2.762-102.255z" fill="#09a76d"/></g></g><g><path d="m379.789 61.867c-36.704 16.028-70.834 46.084-94.51 87.092-9.481 16.422-16.582 33.418-21.425 50.451-.619 11.496-2.156 22.696-4.595 33.441l.015.005c3.409-2.761 7.742-4.423 12.472-4.423.235 0 .463.027.696.035 0 0 .002-.003.002-.003 10.274-22.14 24.99-43.478 43.989-62.476 4.992-4.992 10.149-9.682 15.437-14.081l50.384-87.268c.939-1.628-.744-3.525-2.465-2.773z" fill="#017b4e"/><g><path d="m226.721 148.958c-23.675-41.007-57.806-71.063-94.51-87.092-1.722-.752-3.404 1.146-2.465 2.773l50.384 87.268c5.288 4.399 10.445 9.089 15.437 14.081 18.998 18.998 33.714 40.336 43.989 62.476.233-.008.463-.032.698-.032 5.864 0 11.119 2.553 14.76 6.591-2.887-28.589-12.179-58.155-28.293-86.065z" fill="#017b4e"/></g></g><g><g><path d="m277.815 229.382c19.863-15.409 43.607-27.816 70.193-35.822l83.919-83.919c1.328-1.328.194-3.597-1.663-3.316-39.602 5.982-80.348 26.181-113.831 59.663-18.999 18.999-33.716 40.338-43.99 62.479 1.866.064 3.67.37 5.372.915z" fill="#09a76d"/></g><path d="m163.993 193.56c26.586 8.006 50.33 20.413 70.193 35.822-.102.033-.189.07-.273.109 1.783-.599 3.677-.956 5.645-1.024-10.274-22.141-24.991-43.48-43.99-62.479-33.482-33.482-74.229-53.681-113.831-59.663-1.858-.281-2.992 1.988-1.663 3.316z" fill="#09a76d"/></g><g><g fill="#017b4e"><path d="m290.77 242.553c-.001-.008.005-.016.003-.023 22.245-7.806 46.829-12.148 72.688-12.148 2.593 0 5.171.051 7.737.138l111.793-29.955c1.815-.486 1.967-3.018.218-3.703-37.287-14.62-82.674-17.501-128.412-5.245-29.345 7.863-55.442 21.056-76.983 37.767 6.2 1.983 11.064 6.929 12.956 13.169z"/><path d="m29.009 200.564 111.793 29.955c2.566-.086 5.144-.138 7.737-.138 25.859 0 50.444 4.342 72.688 12.148-.002.008.004.015.003.023 1.892-6.239 6.756-11.185 12.955-13.17-21.541-16.711-47.637-29.904-76.983-37.767-45.738-12.255-91.125-9.375-128.412 5.245-1.748.687-1.596 3.218.219 3.704z"/></g></g><g fill="#09a76d"><path d="m486.14 268.684c-32.233-23.772-75.328-38.302-122.679-38.302-25.859 0-50.444 4.342-72.688 12.148.557 1.833.863 3.776.863 5.792 0 2.912-.641 5.669-1.765 8.161 8.53 1.018 15.406 7.421 17.106 15.723h177.994c1.879-.001 2.681-2.407 1.169-3.522z"/><path d="m222.13 256.482c-1.124-2.492-1.765-5.249-1.765-8.161 0-2.015.305-3.958.863-5.792-22.245-7.806-46.829-12.148-72.688-12.148-47.351 0-90.446 14.53-122.678 38.302-1.512 1.115-.71 3.521 1.169 3.521h177.994c1.699-8.301 8.575-14.704 17.105-15.722z"/></g><g><g><path d="m260.144 248.321c0 2.912-.641 5.669-1.765 8.161 5.436.649 10.187 3.49 13.367 7.615 3.637-4.718 9.328-7.77 15.746-7.77.807 0 1.597.062 2.379.155 1.124-2.492 1.765-5.249 1.765-8.161 0-10.985-8.905-19.889-19.89-19.889-6.418 0-12.109 3.052-15.746 7.77 2.588 3.357 4.144 7.552 4.144 12.119z" fill="#a44f3e"/></g><path d="m224.508 256.327c6.418 0 12.109 3.052 15.746 7.77 3.637-4.718 9.328-7.77 15.746-7.77.807 0 1.597.062 2.379.155 1.124-2.492 1.765-5.249 1.765-8.161 0-10.985-8.905-19.889-19.89-19.889s-19.89 8.905-19.89 19.889c0 2.912.641 5.669 1.765 8.161.782-.093 1.573-.155 2.379-.155z" fill="#ca6e59"/></g><g><path d="m287.492 256.327c-6.418 0-12.109 3.052-15.746 7.77 2.588 3.357 4.144 7.552 4.144 12.119s-1.556 8.762-4.144 12.119c3.637 4.718 9.328 7.77 15.746 7.77 10.985 0 19.89-8.905 19.89-19.89-.001-10.983-8.905-19.888-19.89-19.888z" fill="#ca6e59"/><path d="m256 256.327c-6.418 0-12.109 3.052-15.746 7.77 2.588 3.357 4.144 7.552 4.144 12.119s-1.556 8.762-4.144 12.119c3.637 4.718 9.328 7.77 15.746 7.77 10.985 0 19.89-8.905 19.89-19.89 0-10.983-8.905-19.888-19.89-19.888z" fill="#883f2e"/><g><circle cx="224.508" cy="276.216" fill="#a44f3e" r="19.89"/></g></g><g><path d="m82.29 303.033-24.841 43.097c-12.134 21.05 3.059 47.344 27.356 47.344 24.297 0 39.49-26.294 27.356-47.344l-24.842-43.097c-1.117-1.937-3.912-1.937-5.029 0z" fill="#fac600"/></g><g><path d="m78.266 349.656 17.963-31.164-8.911-15.459c-1.117-1.937-3.912-1.937-5.029 0l-24.84 43.097c-12.134 21.05 3.059 47.344 27.356 47.344 1.856 0 3.651-.171 5.392-.463-14.509-8.138-21.202-27.271-11.931-43.355z" fill="#e8b800"/></g><g><path d="m224.057 416.793-45.498-78.933c-1.117-1.937-3.912-1.937-5.029 0l-45.498 78.933c-9.686 16.803-9.448 35.509-2.301 50.912 7.863-4.081 11.388-10.351 14.283-22.537.51-2.149 3.588-2.149 4.098 0 4.115 17.322 9.49 22.696 26.812 26.811 2.149.51 2.149 3.588 0 4.099-13.049 3.1-19.317 6.917-23.375 16.015 8.166 4.907 17.831 7.793 28.495 7.793 42.643 0 69.308-46.148 48.013-83.093z" fill="#fac600"/><g><path d="m140.013 445.167c.51-2.149 3.588-2.149 4.098 0 2.693 11.337 5.927 17.555 12.696 21.653-6.757-15.232-6.824-33.541 2.68-50.028l32.285-56.01-13.214-22.924c-1.117-1.937-3.912-1.937-5.029 0l-45.498 78.933c-9.686 16.803-9.448 35.509-2.301 50.912 7.863-4.08 11.388-10.35 14.283-22.536z" fill="#e8b800"/></g><g><path d="m140.013 445.167c-4.115 17.322-9.49 22.696-26.811 26.811-2.149.51-2.149 3.588 0 4.098 17.322 4.115 22.696 9.489 26.811 26.811.51 2.149 3.588 2.149 4.098 0 4.115-17.322 9.49-22.696 26.811-26.811 2.149-.51 2.149-3.588 0-4.098-17.322-4.115-22.696-9.489-26.811-26.811-.51-2.148-3.587-2.148-4.098 0z" fill="#fff5c6"/></g><g><g><path d="m129.049 465.669c-3.803 2.778-8.849 4.647-15.847 6.31-2.149.51-2.149 3.588 0 4.099 17.322 4.115 22.696 9.489 26.812 26.811.51 2.149 3.588 2.149 4.098 0 1.653-6.958 3.511-11.986 6.264-15.781-3.636-12.634-8.755-17.792-21.327-21.439z" fill="#fef0ae"/></g></g></g><g><path d="m118.638 381.448c7.064-12.226 7.072-26.83.021-39.063l-24.842-43.097c-1.852-3.211-5.305-5.207-9.012-5.207-3.708 0-7.161 1.995-9.012 5.207l-24.842 43.097c-7.052 12.234-7.044 26.837.021 39.063 7.065 12.227 19.713 19.526 33.833 19.526s26.768-7.299 33.833-19.526zm-12.988-7.504c-4.353 7.533-12.146 12.03-20.846 12.03s-16.493-4.497-20.846-12.03-4.357-16.53-.012-24.068l20.858-36.186 20.858 36.186c4.346 7.537 4.341 16.534-.012 24.068z"/><path d="m490.591 262.647c-22.919-16.903-50.349-28.798-79.906-34.944l74.247-19.894c3.953-1.06 6.763-4.519 6.992-8.608.229-4.083-2.174-7.83-5.979-9.322-34.588-13.561-74.384-16.897-113.853-9.799l65.135-65.135c2.894-2.894 3.598-7.295 1.752-10.951-1.844-3.651-5.794-5.691-9.838-5.084-25.362 3.831-50.44 13.121-73.618 27.024l33.223-57.544c2.046-3.544 1.587-7.978-1.143-11.032-2.726-3.05-7.073-4-10.819-2.364-22.342 9.756-43.159 24.211-61.3 42.301l19.106-71.304c1.059-3.954-.532-8.117-3.959-10.361-3.423-2.24-7.867-2.032-11.063.517-15.458 12.335-29.143 27.4-40.615 44.48v-51.168c0-4.093-2.614-7.703-6.506-8.983-3.885-1.278-8.126.074-10.551 3.362-12.41 16.826-22.113 36.087-28.831 56.833-11.478-17.098-25.17-32.18-40.641-44.526-3.194-2.548-7.641-2.756-11.062-.516-3.427 2.244-5.018 6.407-3.959 10.361l19.106 71.305c-18.141-18.09-38.957-32.544-61.299-42.301-3.744-1.635-8.093-.685-10.819 2.364-2.73 3.054-3.189 7.487-1.143 11.032l33.223 57.543c-23.178-13.903-48.256-23.192-73.618-27.024-4.041-.609-7.994 1.435-9.838 5.085-1.846 3.657-1.141 8.058 1.752 10.95l29.392 29.393c2.929 2.93 7.678 2.929 10.606 0 2.929-2.929 2.929-7.678 0-10.606l-16.309-16.31c33.301 8.708 65.367 27.434 91.804 53.87 12.419 12.419 23.124 26.085 31.899 40.534-16.516-10.445-34.775-18.865-54.187-24.888l-28.458-28.458c-2.929-2.93-7.678-2.929-10.606 0-2.929 2.929-2.929 7.678 0 10.606l10.994 10.994c-39.469-7.099-79.265-3.763-113.853 9.799-3.804 1.492-6.206 5.238-5.978 9.321.229 4.089 3.039 7.549 6.992 8.608l74.248 19.895c-29.557 6.146-56.987 18.041-79.907 34.945-3.288 2.426-4.639 6.666-3.361 10.551 1.28 3.891 4.89 6.505 8.982 6.505h170.325c.498 3.892 1.806 7.534 3.764 10.741-5.05 4.97-8.192 11.873-8.192 19.502 0 13.174 9.35 24.203 21.761 26.806l-5.622 39.006-24.006-41.646c-1.852-3.211-5.305-5.207-9.012-5.207-3.708 0-7.161 1.995-9.012 5.207l-45.499 78.934c-9.039 15.681-10.871 33.78-5.505 50.441-1.386.405-2.896.798-4.561 1.194-4.344 1.033-7.377 4.876-7.377 9.346s3.034 8.313 7.378 9.346c14.602 3.469 17.779 6.646 21.248 21.248 1.032 4.344 4.875 7.378 9.346 7.378s8.314-3.034 9.346-7.378c.163-.684.325-1.336.487-1.971 7.489 3.086 15.651 4.735 24.149 4.735 13.482 0 26.13-4.133 36.565-11.602h45.392c4.142 0 7.5-3.358 7.5-7.5s-3.358-7.5-7.5-7.5h-30.573c1.092-1.555 2.128-3.166 3.094-4.838 4.053-7.014 6.656-14.515 7.823-22.156 2.753 1.492 6.234 1.141 8.638-1.066l9.017-8.278 9.022 8.282c2.868 2.634 7.275 2.634 10.144 0l9.017-8.277 9.022 8.282c1.434 1.317 3.253 1.975 5.072 1.975.293 0 .586-.023.877-.058l3.766 26.133h-9.919c-4.142 0-7.5 3.358-7.5 7.5s3.358 7.5 7.5 7.5h12.95c3.592 0 7.001-1.557 9.354-4.272s3.408-6.312 2.896-9.868l-20.882-144.89c12.411-2.603 21.761-13.632 21.761-26.806 0-7.629-3.142-14.531-8.192-19.502 1.958-3.208 3.267-6.849 3.764-10.741h53.349c4.142 0 7.5-3.358 7.5-7.5s-3.358-7.5-7.5-7.5h-55.661c-2.735-5.875-7.495-10.626-13.377-13.351.111-.996.173-2.007.173-3.033 0-.218-.011-.433-.016-.649 20.255-6.409 42.03-9.79 64.342-9.79 37.387 0 73.302 9.434 103.007 26.823h-63.468c-4.142 0-7.5 3.358-7.5 7.5s3.358 7.5 7.5 7.5h81.971c4.093 0 7.703-2.614 8.982-6.505 1.278-3.884-.073-8.124-3.362-10.551zm-77.051-145.226-69.516 69.516c-19.417 6.024-37.681 14.447-54.201 24.896 8.776-14.453 19.49-28.12 31.913-40.542 26.437-26.437 58.502-45.161 91.804-53.87zm-47.033-40.508-40.481 70.114c-5.125 4.311-10.101 8.862-14.897 13.657-18.093 18.093-32.813 38.694-43.538 60.568-.385.059-.763.135-1.142.21 4.169-23.494 12.712-46.907 25.325-68.755 18.694-32.378 44.82-58.763 74.733-75.794zm-87.397 273.827-9.017 8.278-9.021-8.282c-2.869-2.634-7.275-2.634-10.145 0l-9.017 8.278-9.021-8.282c-1.359-1.247-3.062-1.896-4.783-1.962l2.682-18.607 6.051 5.555c2.869 2.634 7.275 2.634 10.145 0l9.016-8.278 9.022 8.282c1.434 1.317 3.253 1.975 5.072 1.975s3.638-.658 5.072-1.975l6.047-5.552 2.682 18.607c-1.722.067-3.426.716-4.785 1.963zm5.073 15.706 2.603 2.39 2.397 16.633c-2.648-1.149-5.818-.704-8.055 1.349l-10.062 9.237-10.066-9.241c-2.869-2.633-7.275-2.633-10.144 0l-10.062 9.237-10.067-9.241c-2.193-2.013-5.282-2.482-7.899-1.417l2.387-16.565 2.602-2.388 9.022 8.282c2.868 2.634 7.275 2.634 10.144 0l9.017-8.278 9.021 8.282c1.435 1.317 3.253 1.975 5.072 1.975s3.638-.658 5.072-1.975zm-34.449-100.9c1.84-1.087 3.978-1.72 6.266-1.72 6.832 0 12.39 5.558 12.39 12.39s-5.558 12.39-12.39 12.39c-2.288 0-4.427-.633-6.266-1.72 1.393-3.281 2.164-6.887 2.164-10.67s-.771-7.389-2.164-10.67zm2.866-16.488c-4.552.569-8.765 2.243-12.344 4.769-3.581-2.526-7.795-4.2-12.348-4.769-.015-.246-.044-.488-.044-.737 0-6.832 5.558-12.389 12.389-12.389s12.39 5.558 12.39 12.389c.001.249-.028.491-.043.737zm3.4 54.548c5.859 0 11.289-1.855 15.748-5.001 1.655 1.168 3.445 2.156 5.34 2.939l1.534 10.643-8.528 7.829-9.022-8.282c-2.868-2.634-7.275-2.634-10.144 0l-9.017 8.278-8.531-7.832 1.533-10.635c1.896-.783 3.688-1.772 5.344-2.94 4.456 3.146 9.885 5.001 15.743 5.001zm15.748-49.779c-1.341-.946-2.778-1.759-4.28-2.456.112-1.002.176-2.019.176-3.051 0-3.783-.771-7.389-2.164-10.669 1.84-1.087 3.978-1.72 6.267-1.72 6.832 0 12.389 5.558 12.389 12.389 0 .25-.029.491-.044.737-4.552.57-8.765 2.244-12.344 4.77zm43.567-213.848-22.399 83.596c-5.062 6.888-9.789 14.109-14.132 21.633-3.141 5.44-6.045 10.974-8.708 16.582-1.288-10.994-3.364-22.011-6.281-32.937 9.919-34.618 27.873-65.509 51.52-88.874zm-51.358-12.017v58.696c-2.898 5.922-5.556 12.008-7.961 18.239-3.575-9.262-7.71-18.204-12.359-26.759 4.533-17.94 11.367-34.883 20.32-50.176zm-14.703 104.572c5.882 21.95 8.22 44.268 7.123 65.855-.123.44-.251.88-.371 1.32-5.093-18.686-12.728-37.073-22.79-54.501-4.344-7.524-9.07-14.745-14.132-21.633l-22.399-83.596c24.485 24.193 42.893 56.442 52.569 92.555zm-48.383 28.15c-4.796-4.796-9.773-9.347-14.897-13.658l-40.48-70.114c29.913 17.03 56.039 43.417 74.733 75.795 12.614 21.849 21.157 45.264 25.326 68.759-.38-.076-.758-.155-1.144-.215-10.726-21.873-25.446-42.474-43.538-60.567zm23.637 103.143c6.832 0 12.39 5.558 12.39 12.39s-5.558 12.39-12.39 12.39-12.39-5.558-12.39-12.39 5.559-12.39 12.39-12.39zm-175.686-65.718c33.194-9.109 70.327-8.926 106.44.751 24.007 6.433 46.286 16.746 65.644 30.118-1.328 1.329-2.529 2.786-3.564 4.363-21.699-6.854-44.986-10.459-68.803-10.459-2.291 0-4.576.043-6.856.11zm150.839 66.595h-154.129c29.706-17.39 65.621-26.823 103.007-26.823 22.312 0 44.088 3.382 64.342 9.791-.005.217-.016.431-.016.649 0 1.026.063 2.036.173 3.033-5.882 2.724-10.642 7.475-13.377 13.35zm8.261 45.244c0-3.705 1.643-7.027 4.23-9.299 2.293 1.164 4.769 2.014 7.375 2.495l-2.693 18.688c-5.143-1.508-8.912-6.261-8.912-11.884zm-65.859 176.377c-2.952-5.46-6.837-9.346-12.298-12.297 5.461-2.952 9.346-6.836 12.297-12.297 2.952 5.461 6.837 9.346 12.298 12.297-5.461 2.952-9.346 6.836-12.297 12.297zm75.471-17.884c-8.663 14.993-24.173 23.944-41.49 23.944-6.116 0-11.992-1.148-17.433-3.257 3.023-2.618 7.321-4.157 14.046-5.754 4.344-1.033 7.377-4.876 7.377-9.346s-3.034-8.313-7.378-9.346c-14.602-3.469-17.779-6.646-21.248-21.248-1.032-4.344-4.875-7.378-9.346-7.378s-8.314 3.034-9.346 7.378c-1.103 4.645-2.179 8.131-3.601 10.841-2.421-11.34-.633-23.246 5.414-33.736l41.515-72.022 41.515 72.022c8.648 15.002 8.638 32.909-.025 47.902zm71.72-39.696c-2.868-2.634-7.275-2.634-10.144 0l-9.017 8.277-9.022-8.282c-2.868-2.634-7.275-2.634-10.144 0l-9.017 8.278-3.843-3.527c-1.273-7.046-3.772-13.953-7.514-20.444l-5.665-9.828.766-.703 10.067 9.241c2.868 2.634 7.275 2.634 10.144 0l10.062-9.237 10.066 9.242c1.435 1.317 3.253 1.975 5.072 1.975s3.638-.658 5.072-1.975l10.062-9.237 6.27 5.756 3.889 26.987zm14.824-118.797c0 5.624-3.769 10.376-8.912 11.884l-2.693-18.688c2.606-.481 5.082-1.331 7.375-2.495 2.587 2.272 4.23 5.593 4.23 9.299zm-4.197-33.732c0 6.832-5.558 12.39-12.39 12.39-2.289 0-4.427-.633-6.266-1.72 1.393-3.281 2.164-6.887 2.164-10.67s-.771-7.389-2.164-10.67c1.839-1.087 3.978-1.72 6.266-1.72 6.832.001 12.39 5.559 12.39 12.39zm63.58-53.335c-23.817 0-47.103 3.605-68.803 10.459-1.035-1.577-2.236-3.033-3.564-4.363 19.358-13.373 41.637-23.685 65.644-30.118 18.508-4.959 37.278-7.425 55.654-7.425 17.479 0 34.604 2.233 50.786 6.674l-92.861 24.882c-2.281-.065-4.565-.109-6.856-.109z"/></g></g></svg>