<svg id="Capa_1" enable-background="new 0 0 512 512" height="512" viewBox="0 0 512 512" width="512" xmlns="http://www.w3.org/2000/svg"><g><g><path d="m255.313 134.715c11.426-10.041 24.528-18.216 38.834-24.058-1.886-25.876-17.114-48.044-38.834-59.669-21.72 11.625-36.947 33.794-38.834 59.669 14.307 5.842 27.409 14.017 38.834 24.058z" fill="#fdb4ba"/><path d="m249.199 129.639c-.815-4.392-1.265-8.912-1.265-13.541 0-21.176 8.921-40.263 23.207-53.721-4.731-4.456-10.049-8.296-15.827-11.389-21.72 11.625-36.947 33.794-38.833 59.669 11.814 4.825 22.811 11.237 32.718 18.982z" fill="#fe99a0"/><g><g><path d="m223.111 176.341c7.996-15.882 18.974-30.001 32.202-41.625-24.244-21.305-56.032-34.231-90.843-34.231v49.285c21.807 4.152 41.791 13.442 58.641 26.571z" fill="#fd8087"/></g><path d="m196.002 159.85v-55.733c-10.126-2.373-20.682-3.633-31.532-3.633v49.285c11.034 2.102 21.601 5.516 31.532 10.081z" fill="#fe646f"/><path d="m346.157 100.485c-53.806 0-100.382 30.876-123.033 75.866 13.071 10.186 24.255 22.678 32.943 36.866 19.721-31.813 52.119-54.975 90.09-62.367z" fill="#fdb4ba"/></g><g><path d="m255.441 212.214c-24.318-38.96-67.566-64.888-116.876-64.888v46.979c0 50.095 40.61 90.706 90.706 90.706h5.362c0-26.731 7.625-51.677 20.808-72.797z" fill="#fe99a0"/><g><path d="m234.687 281.216c-37.413-11.186-64.685-45.861-64.685-86.911v-43.37c-10.097-2.358-20.621-3.609-31.437-3.609v46.979c0 50.095 40.61 90.706 90.706 90.706h5.362c0-1.27.02-2.534.054-3.795z" fill="#fd8087"/></g><g><path d="m273.044 246.769 15.48-33.514c6.356 2.936 12.285 6.418 17.772 10.352-.033-.024-.065-.048-.098-.072l16.24-35.159c13.501 6.236 25.088 14.918 34.519 25.255-.26-.284-.506-.578-.769-.86 4.107-7.42 9.663-13.601 16.127-18.396 0-.024.001-.047.001-.07v-46.979c-76.041 0-137.685 61.644-137.685 137.685h32.331c-1.502-12.64.353-25.839 6.082-38.242z" fill="#fd8087"/></g></g></g><g><path d="m431.031 22.53-30.695 66.113c-11.338 24.42 6.492 52.357 33.416 52.357 26.923 0 44.754-27.937 33.416-52.357l-30.695-66.113c-1.075-2.315-4.367-2.315-5.442 0z" fill="#fdb4ba"/></g><g><path d="m432.07 88.643 17.549-37.798-13.146-28.315c-1.075-2.316-4.367-2.316-5.442 0l-30.695 66.113c-11.338 24.42 6.492 52.357 33.416 52.357 5.775 0 11.127-1.293 15.867-3.553-17.359-8.277-26.455-29.622-17.549-48.804z" fill="#fe99a0"/></g><g><path d="m68.565 149.006-24.385 52.521c-9.197 19.808 5.267 42.47 27.106 42.47 21.839 0 36.302-22.661 27.106-42.47l-24.385-52.521c-1.075-2.316-4.367-2.316-5.442 0z" fill="#fdb4ba"/></g><g><path d="m64.574 201.527 16.909-36.42-7.475-16.101c-1.075-2.316-4.367-2.316-5.442 0l-24.385 52.521c-9.197 19.808 5.267 42.469 27.106 42.469 3.63 0 7.049-.638 10.196-1.772-15.79-5.693-24.578-24.181-16.909-40.697z" fill="#fe99a0"/></g><g><g><ellipse cx="168.76" cy="358.4" fill="#09a76d" rx="43.694" ry="83.824" transform="matrix(.707 -.707 .707 .707 -203.998 224.304)"/></g><g><path d="m169.103 368.542c-20.2-20.2-30.49-46.157-30.492-70.995-9.882-1.08-19.731-.562-29.123 1.58-6.844 30.007 2.882 64.675 28.376 90.169s60.162 35.22 90.169 28.376c1.421-6.232 2.117-12.665 2.116-19.175-21.688-2.37-43.532-12.441-61.046-29.955z" fill="#02905d"/></g></g><g><path d="m126.194 9.237-19.608 42.232c-7.576 16.317 4.339 34.985 22.329 34.985 17.99 0 29.905-18.668 22.329-34.985l-19.608-42.232c-1.075-2.316-4.367-2.316-5.442 0z" fill="#fdb4ba"/></g><g><path d="m126.918 51.469 12.163-26.197-7.445-16.035c-1.075-2.316-4.367-2.316-5.442 0l-19.608 42.232c-7.576 16.317 4.339 34.985 22.329 34.985 3.684 0 7.107-.793 10.166-2.178-11.88-5.379-18.187-19.831-12.163-32.807z" fill="#fe99a0"/></g><g><path d="m375.965 242.729c11.46-3.398 23.5-4.913 35.63-4.366 7.181-19.081 3.623-39.913-8.041-55.363-19.325 1.136-37.493 11.933-47.365 29.771 8.281 8.881 14.934 19.03 19.776 29.958z" fill="#fe99a0"/><path d="m370.102 231.357c9.451-16.004 25.714-26.028 43.288-28.065-1.92-7.307-5.248-14.216-9.835-20.292-19.325 1.136-37.493 11.933-47.365 29.771 5.327 5.714 9.981 11.952 13.912 18.586z" fill="#fd8087"/><g><g><path d="m339.277 261.813c10.938-8.695 23.422-15.15 36.688-19.084-10.274-23.187-28.693-42.883-53.526-54.353l-16.24 35.159c14.188 10.147 25.383 23.36 33.078 38.278z" fill="#fd8087"/></g><g><path d="m328.238 244.607 18.753-40.6c-7.275-6.152-15.483-11.442-24.552-15.631l-16.24 35.159c8.44 6.036 15.825 13.152 22.039 21.072z" fill="#fe646f"/></g><path d="m339.277 261.813c6.014 11.659 9.894 24.355 11.394 37.441 17.274-11.471 37.826-17.972 59.307-17.972 8.628 0 17.118 1.029 25.397 3.065l16.676-36.103c-38.384-17.73-81.791-11.062-112.774 13.569z" fill="#fdb4ba"/></g><g><g><path d="m311.688 343.132c8.808-19.069 22.468-34.352 38.832-45.075-4.51-35.807-26.819-68.553-61.996-84.802l-15.48 33.514c-16.507 35.737-.918 78.089 34.819 94.597z" fill="#fe99a0"/></g><path d="m311.688 343.132c2.436-5.273 5.247-10.254 8.379-14.932-21.427-20.464-28.597-53.03-15.478-81.431l8.324-18.021c-7.234-6.093-15.387-11.336-24.388-15.493l-15.48 33.514c-16.507 35.737-.918 78.089 34.819 94.597z" fill="#fd8087"/><g><path d="m311.688 343.132 33.514 15.48c35.737 16.507 78.089.918 94.597-34.819l15.48-33.514c-54.247-25.056-118.534-1.393-143.591 52.853z" fill="#fd8087"/></g></g></g><g><g><ellipse cx="378.815" cy="438.5" fill="#09a76d" rx="80.088" ry="41.747" transform="matrix(.955 -.296 .296 .955 -112.786 131.724)"/></g><g><path d="m374.773 425.083c26.31-8.15 53.08-5.157 74.164 6.156 2.723-5.285 4.874-10.791 6.38-16.436-22.315-19.151-55.95-26.373-88.855-16.18s-56.568 35.163-64.15 63.575c4.473 3.838 9.406 7.188 14.691 10.024 10.981-21.312 31.404-38.972 57.77-47.139z" fill="#02905d"/></g></g><g><path d="m473.971 85.485-30.695-66.113c-1.741-3.749-5.391-6.078-9.524-6.078s-7.782 2.329-9.523 6.078l-30.695 66.113c-6.408 13.803-5.346 29.702 2.842 42.529s22.16 20.486 37.378 20.486 29.19-7.658 37.378-20.486c8.185-12.828 9.247-28.727 2.839-42.529zm-15.486 34.459c-5.417 8.488-14.663 13.556-24.733 13.556s-19.316-5.067-24.734-13.556c-5.417-8.488-6.12-19.009-1.88-28.143l26.614-57.322 26.613 57.322c4.241 9.134 3.538 19.654-1.88 28.143z"/><path d="m105.195 198.369-24.385-52.521c-1.741-3.75-5.391-6.079-9.524-6.079s-7.782 2.329-9.523 6.079l-24.385 52.521c-5.402 11.637-4.507 25.042 2.396 35.856s18.683 17.271 31.513 17.271 24.611-6.457 31.514-17.271 7.796-24.219 2.394-35.856zm-15.04 27.786c-4.133 6.476-11.187 10.342-18.869 10.342s-14.735-3.866-18.868-10.341c-4.134-6.476-4.67-14.502-1.435-21.47l20.303-43.73 20.304 43.73c3.235 6.967 2.699 14.993-1.435 21.469z"/><path d="m128.915 93.954c11.022 0 21.144-5.547 27.074-14.839s6.699-20.808 2.058-30.805l-19.608-42.231c-1.741-3.75-5.39-6.079-9.524-6.079-4.133 0-7.782 2.329-9.523 6.079l-19.608 42.232c-4.642 9.998-3.873 21.514 2.058 30.805 5.929 9.291 16.05 14.838 27.073 14.838zm-15.526-39.327 15.525-33.441 15.526 33.441c2.511 5.408 2.111 11.392-1.097 16.418s-8.467 7.909-14.43 7.909c-5.962 0-11.222-2.882-14.429-7.908-3.206-5.026-3.605-11.011-1.095-16.419z"/><path d="m460.202 409.111c-25.021-21.473-61.792-28.238-95.958-17.652-32.711 10.132-58.388 34.731-67.979 64.761l-14.034 4.347 46.74-101.19 13.085 6.044c10.665 4.926 21.872 7.257 32.914 7.257 29.786-.002 58.348-16.971 71.637-45.739l15.479-33.514c1.737-3.761.097-8.217-3.664-9.954-3.988-1.842-8.046-3.44-12.161-4.809l12.598-27.273c.834-1.806.917-3.869.229-5.736-.687-1.867-2.087-3.384-3.894-4.218-11.011-5.086-22.418-8.274-33.857-9.726 3.949-18.38-.161-37.812-11.798-53.228-1.511-2.001-3.919-3.115-6.426-2.968-8.206.482-16.075 2.487-23.297 5.767v-33.954c0-4.142-3.357-7.5-7.5-7.5-6.292 0-12.515.402-18.66 1.188v-40.529c0-4.142-3.357-7.5-7.5-7.5-16.012 0-31.422 2.612-45.833 7.427-4.641-23.69-19.656-44.359-41.472-56.035-2.211-1.184-4.867-1.184-7.078 0-21.814 11.676-36.828 32.343-41.471 56.031-14.413-4.812-29.823-7.422-45.834-7.422-4.143 0-7.5 3.358-7.5 7.5v40.525c-6.03-.768-12.168-1.184-18.404-1.184-4.143 0-7.5 3.358-7.5 7.5v46.979c0 54.151 44.055 98.206 98.206 98.206h16.905v132.699l-9.998-9.998c4.655-25.837-1.725-53.638-17.802-76.927-2.353-3.409-7.023-4.265-10.433-1.912s-4.265 7.024-1.911 10.433c11.557 16.742 17.288 36.093 16.555 54.814l-61.108-61.108c-2.93-2.929-7.678-2.929-10.607 0s-2.929 7.678 0 10.606l61.118 61.118c-24.466.94-49.814-9.235-68.824-28.244-21.524-21.524-31.73-51.182-27.29-78.472 22.628-3.649 47.534 2.849 67.546 17.821 3.317 2.482 8.018 1.805 10.498-1.512 2.481-3.316 1.805-8.017-1.512-10.498-25.263-18.903-56.092-26.017-84.59-19.518-2.81.641-5.004 2.834-5.645 5.645-7.646 33.53 3.996 70.751 30.385 97.14 21.031 21.031 48.941 32.696 76.38 32.696 5.584 0 11.148-.492 16.632-1.478l20.606 20.606v58.077c0 4.142 3.357 7.5 7.5 7.5 3.019 0 5.614-1.787 6.803-4.357l13.287-28.751 26.922-8.34c16.766 13.038 38.16 19.911 60.342 19.911 10.746 0 21.68-1.614 32.355-4.921 34.17-10.584 60.677-36.949 69.177-68.806.745-2.784-.173-5.748-2.359-7.625zm-18.221-156.952-10.467 22.661c-5.988-1.14-12.072-1.809-18.227-1.987-4.103-.111-7.594 3.141-7.713 7.281s3.141 7.594 7.281 7.713c11.112.32 21.965 2.457 32.354 6.364l-12.22 26.457c-14.747 31.925-52.72 45.9-84.644 31.155l-26.45-12.218c12.613-22.678 33.63-39.757 58.647-47.395 3.961-1.21 6.192-5.402 4.982-9.363-1.209-3.962-5.399-6.19-9.363-4.983-7.027 2.146-13.777 4.943-20.18 8.321-1.701-7.543-4.153-14.897-7.304-21.948 26.511-18.631 61.35-24.046 93.304-12.058zm-133.691 81.061c-14.123-7.337-24.855-19.496-30.39-34.533-5.885-15.987-5.191-33.308 1.952-48.773l12.221-26.457c21.115 11.692 37.156 30.357 45.577 53.238 2.158 5.862 3.74 11.839 4.78 17.865-14.046 10.092-25.765 23.275-34.14 38.66zm91.619-142.327c7.587 11.937 9.751 26.388 6.191 39.905-8.809.059-17.538 1.122-26.022 3.138-4.026-7.898-8.903-15.242-14.534-21.931 7.984-11.449 20.375-19.153 34.365-21.112zm-58.285 59.949c-6.84-11.152-15.605-21.215-26.092-29.627l10.456-22.637c16.824 9.316 30.402 23.075 39.492 39.853-8.379 3.194-16.393 7.351-23.856 12.411zm-86.311-191.206c16.673 10.276 27.838 27.263 30.764 46.392-11.06 5.055-21.381 11.459-30.751 19-9.377-7.546-19.707-13.952-30.777-19.008 2.93-19.126 14.093-36.11 30.764-46.384zm-83.343 48.562c27.019 1.543 51.854 11.371 72.011 26.968-9.034 8.966-16.907 19.1-23.353 30.166-14.538-10.005-30.978-17.432-48.658-21.618zm55.364 169.264c-44.986-1.037-81.269-37.927-81.269-83.157v-39.266c41.807 2.388 78.386 24.606 100.483 57.361-11.368 19.656-18.024 41.873-19.214 65.062zm31.608.049h-16.597c2.077-36.487 19.261-70.243 47.862-93.521 3.213-2.614 3.697-7.338 1.083-10.551-2.614-3.211-7.336-3.699-10.552-1.083-9.66 7.862-18.149 16.799-25.359 26.565-6.63-8.974-14.268-17.16-22.744-24.39 21.177-37.625 60.5-63.733 106.021-66.333v35.549c-9.081 2.159-17.951 5.197-26.553 9.122-3.768 1.72-5.429 6.169-3.709 9.937s6.165 5.43 9.938 3.709c14.728-6.722 30.331-10.572 46.484-11.479v35.686c-3.63 3.046-6.941 6.488-9.858 10.291-8.632-7.839-18.487-14.417-29.376-19.446-1.806-.835-3.868-.917-5.735-.23-1.866.688-3.384 2.088-4.218 3.894l-12.592 27.261c-3.637-2.197-7.424-4.223-11.37-6.045-3.757-1.737-8.216-.097-9.953 3.664l-15.48 33.514c-4.987 10.799-7.425 22.332-7.292 33.886zm2.235 192.867v-27.055c0-.004 0-.009 0-.013v-148.134c.712 2.924 1.591 5.827 2.646 8.693 7.269 19.747 21.792 35.481 40.895 44.305l10.636 4.913zm127.771.835c-24.177 7.49-49.747 4.954-69.828-6.371l42.343-13.116c3.956-1.226 6.17-5.427 4.944-9.383s-5.427-6.171-9.383-4.945l-42.343 13.116c10.163-20.692 29.821-37.238 54.001-44.728 27.596-8.548 57.003-4.037 77.993 11.693-8.422 24.841-30.129 45.186-57.727 53.734z"/></g></g></svg>