<svg id="Capa_1" enable-background="new 0 0 512 512" height="512" viewBox="0 0 512 512" width="512" xmlns="http://www.w3.org/2000/svg"><g><g><g><g><path d="m284.369 197.329c8.621-37.755 30.806-68.849 59.933-85.403-14.594-8.294-30.928-12.941-48.175-12.941-46.808 0-86.903 34.202-103.656 82.768 10.102-3.62 20.76-5.567 31.778-5.567 22-.001 42.574 7.725 60.12 21.143z" fill="#fe9901"/></g><path d="m224.248 176.185c4.01 0 7.972.257 11.877.758 14.884-38.715 44.854-67.482 80.953-75.618-6.788-1.53-13.79-2.34-20.951-2.34-46.808 0-86.903 34.202-103.656 82.768 10.101-3.621 20.758-5.568 31.777-5.568z" fill="#fb8801"/><path d="m448.926 117.153c13.597 18.768 17.325 41.899 10.758 61.492-22.994 7.707-50.865 1.245-70.833-18.722-16.245-16.245-23.549-37.723-21.557-57.548-40.208 11.002-72.152 47.78-82.925 94.954 33.706 25.776 56.239 72.567 56.239 126.017 0 8.956-.634 17.725-1.846 26.24 15.947 10.398 34.248 16.314 53.71 16.314 61.872 0 112.029-59.751 112.029-133.458-.001-49.179-22.335-92.139-55.575-115.289z" fill="#fe9901"/><g fill="#fb8801"><path d="m368.724 124.006c-1.657-7.212-2.145-14.527-1.431-21.631-40.208 11.002-72.152 47.78-82.925 94.954 15.377 11.759 28.426 27.892 38.073 47.036-.292-3.928-.443-7.904-.443-11.922.002-44.676 18.432-84.216 46.726-108.437z"/><path d="m339.646 304.363c.633 6.215.961 12.55.961 18.983 0 8.956-.634 17.725-1.846 26.24 15.947 10.398 34.248 16.314 53.71 16.314 7.101 0 14.045-.796 20.779-2.301-30.858-6.895-57.257-28.86-73.604-59.236z"/></g></g><g><g><ellipse cx="414.907" cy="133.868" fill="#81b823" rx="36.848" ry="63.324" transform="matrix(.707 -.707 .707 .707 26.865 332.592)"/></g><g><path d="m407.832 140.943c-15.523-15.523-22.879-35.823-21.765-54.896-5.46.319-10.82 1.328-15.937 3.043-7.707 22.994-1.245 50.865 18.722 70.833 19.967 19.967 47.839 26.429 70.833 18.722 1.715-5.117 2.724-10.477 3.043-15.937-19.073 1.114-39.373-6.242-54.896-21.765z" fill="#78a91f"/></g></g></g><g><g><path d="m78.599 187.733c13.912-7.436 29.207-11.548 45.26-11.548 9.21 0 18.167 1.363 26.759 3.921 2.167-24.151-6.92-50.307-26.799-70.187-24.581-24.579-58.759-32.668-86.874-23.371-9.296 28.115-1.208 62.293 23.372 86.873 5.65 5.649 11.81 10.416 18.282 14.312z" fill="#81b823"/><path d="m78.599 187.733c12.051-6.441 25.14-10.383 38.86-11.323-10.665-4.532-20.816-11.265-29.71-20.159-20.776-20.776-29.767-48.407-26.441-73.439-8.364-.067-16.595 1.168-24.363 3.736-9.296 28.115-1.208 62.293 23.372 86.873 5.65 5.649 11.81 10.416 18.282 14.312z" fill="#78a91f"/></g><g><path d="m123.86 176.185c17.975 0 34.997 5.158 50.194 14.363 15.197-9.204 32.219-14.363 50.194-14.363 64.264 0 116.36 65.886 116.36 147.161s-52.096 147.161-116.36 147.161c-17.975 0-34.997-5.158-50.194-14.363-15.197 9.204-32.219 14.363-50.194 14.363-64.264 0-116.36-65.886-116.36-147.161 0-81.275 52.096-147.161 116.36-147.161z" fill="#fdb441"/></g><g><g><path d="m49 323.346c0-72.307 41.234-132.431 95.586-144.819-6.727-1.531-13.651-2.341-20.726-2.341-64.264 0-116.36 65.886-116.36 147.161s52.096 147.161 116.36 147.161c7.075 0 13.999-.811 20.726-2.341-54.352-12.39-95.586-72.514-95.586-144.821z" fill="#fea613"/></g></g><g><ellipse cx="174.054" cy="323.346" fill="#a44f3e" rx="58.946" ry="73.01"/></g><g><path d="m157.108 323.346c0-28.274 15.356-52.839 37.946-65.382-6.471-3.593-13.532-6.205-21-7.628-33.539 6.391-58.946 36.637-58.946 73.01s25.407 66.618 58.946 73.01c7.468-1.423 14.529-4.036 21-7.628-22.59-12.543-37.946-37.108-37.946-65.382z" fill="#883f2e"/></g></g><g><path d="m454.372 111.925c-2.442-3.296-5.141-6.451-8.107-9.416-20.103-20.103-48.659-28.406-73.978-21.867l-20.489-20.489v-18.66c0-4.142-3.357-7.5-7.5-7.5s-7.5 3.358-7.5 7.5v58.416c-12.703-5.441-26.396-8.425-40.673-8.425-48.869 0-90.972 34.771-109.48 84.431-1.708.679-3.405 1.411-5.092 2.186v-32.788c0-4.142-3.358-7.5-7.5-7.5s-7.5 3.358-7.5 7.5v32.782c-2.678-1.227-5.383-2.34-8.114-3.329.359-17.24-4.434-34.902-14.119-50.827-2.153-3.539-6.766-4.663-10.305-2.511s-4.664 6.766-2.511 10.305c7.454 12.256 11.458 25.663 11.886 38.844-4.453-.874-8.962-1.441-13.518-1.708l-48.091-48.091c-2.929-2.929-7.678-2.929-10.606 0-2.929 2.929-2.929 7.678 0 10.606l38.328 38.328c-10.546 1.503-20.787 4.651-30.526 9.359-4.723-3.153-9.21-6.807-13.356-10.954-20.792-20.792-29.45-50.041-22.65-75.542 21.865-5.796 47.171-.17 66.96 15.1 3.279 2.531 7.989 1.924 10.52-1.355s1.924-7.989-1.355-10.52c-25.176-19.425-56.766-25.545-84.505-16.373-2.253.745-4.021 2.513-4.766 4.766-10.468 31.656-.58 68.762 25.189 94.531 3.092 3.092 6.349 5.95 9.739 8.575-10.574 7.177-20.358 16.337-29.056 27.337-23.019 29.114-35.697 67.721-35.697 108.71s12.678 79.596 35.698 108.71c23.43 29.632 54.74 45.951 88.162 45.951 17.518 0 34.382-4.437 50.194-13.195 15.813 8.759 32.677 13.195 50.194 13.195 33.422 0 64.732-16.319 88.162-45.951 15.709-19.868 26.598-44.159 31.932-70.61 14.733 7.676 31.014 11.954 48.129 11.954 24.617 0 48.257-8.747 68.363-25.294 3.198-2.632 3.657-7.358 1.025-10.557-2.634-3.199-7.359-3.656-10.557-1.025-17.391 14.312-37.734 21.876-58.832 21.876-16.359 0-31.843-4.57-45.644-12.68.847-7.348 1.281-14.82 1.281-22.374 0-40.989-12.678-79.597-35.697-108.71-6.039-7.637-12.605-14.383-19.592-20.2 10.109-38.4 35.107-68.88 66.788-81.558 1.07 18.922 9.43 37.838 23.941 52.349 15.572 15.572 36.216 24.068 56.499 24.068 7.479 0 14.912-1.156 22.021-3.539 2.229-.748 3.979-2.498 4.728-4.728 3.63-10.83 4.407-22.407 2.594-33.768 17.13 22.44 27.611 52.36 27.611 85.182 0 28.972-8.386 57.271-23.613 79.682-2.327 3.426-1.437 8.091 1.989 10.418 3.427 2.327 8.091 1.437 10.419-1.989 16.898-24.871 26.205-56.163 26.205-88.111 0-51.017-23.111-95.773-57.628-120.517zm-121.265 211.421c0 77.009-48.834 139.661-108.859 139.661-16.181 0-31.762-4.467-46.309-13.278-1.194-.723-2.54-1.085-3.885-1.085s-2.691.362-3.885 1.085c-14.547 8.811-30.127 13.278-46.309 13.278-60.026 0-108.86-62.652-108.86-139.661s48.834-139.661 108.859-139.661c16.181 0 31.762 4.467 46.309 13.277 2.388 1.447 5.382 1.446 7.771 0 14.547-8.81 30.128-13.277 46.309-13.277 60.025.001 108.859 62.652 108.859 139.661zm-53.198-138.296c-17.037-10.702-35.982-16.365-55.661-16.365-6.461 0-12.832.608-19.095 1.809 17.976-38.183 52.013-64.01 90.972-64.01 11.545 0 22.657 2.275 33.049 6.46-22.595 16.703-40.139 42.058-49.265 72.106zm80.624-88.448c-2.961.969-5.87 2.083-8.734 3.309v-18.544l9.882 9.882c-.458 1.769-.835 3.556-1.148 5.353zm93.117 76.009c-20.199 5.178-43.163-1.658-59.495-17.991-13.922-13.921-20.937-32.659-19.501-50.398l47.612 47.612c1.465 1.465 3.384 2.197 5.304 2.197 1.919 0 3.839-.732 5.304-2.197 2.929-2.929 2.929-7.678 0-10.606l-47.613-47.613c17.739-1.436 36.476 5.578 50.397 19.5 16.333 16.332 23.168 39.296 17.992 59.496z"/><path d="m232.806 332.679c-4.044-.897-8.05 1.648-8.951 5.69-5.665 25.441-25.131 45.052-49.801 50.335-29.897-6.399-51.446-33.652-51.446-65.358 0-31.705 21.55-58.957 51.445-65.359 24.024 5.154 43.341 24.167 49.429 48.812.994 4.021 5.059 6.473 9.08 5.482 4.021-.994 6.476-5.059 5.482-9.08-7.092-28.707-28.925-51.193-56.491-58.805v-14.89c0-4.142-3.358-7.5-7.5-7.5s-7.5 3.358-7.5 7.5v14.894c-34.503 9.487-58.946 41.714-58.946 78.946s24.443 69.458 58.946 78.945v14.894c0 4.142 3.358 7.5 7.5 7.5s7.5-3.358 7.5-7.5v-14.884c28.313-7.784 50.335-30.999 56.943-60.671.901-4.043-1.647-8.05-5.69-8.951z"/></g></g></svg>