<svg id="Capa_1" enable-background="new 0 0 512 512" height="512" viewBox="0 0 512 512" width="512" xmlns="http://www.w3.org/2000/svg"><g><g><path d="m172.736 76.265 2.399 1h185.049l2.799-1 13.127-29.283c1.364-3.043-.572-6.545-3.875-7.008l-231.602-32.424c-3.012-.422-5.702 1.917-5.702 4.959v23.876c0 1.328.528 2.602 1.467 3.541z" fill="#99e6fc"/><path d="m172.736 76.265 41.448-.001-36.338-36.338c-.939-.939-1.467-2.213-1.467-3.541v-23.831l-35.746-5.004c-3.012-.422-5.702 1.917-5.702 4.959v23.876c0 1.328.528 2.602 1.467 3.541z" fill="#62dbfb"/></g><path d="m422.868 122.606h-59.885v36.586h59.885c13.378 0 24.262 10.884 24.262 24.262v124.649c0 11.957-8.698 21.916-20.097 23.897 1.185 9.667 1.805 19.561 1.805 29.634 0 2.355-.046 4.696-.113 7.031 30.857-2.948 54.991-28.932 54.991-60.561v-124.65c-.001-33.606-27.243-60.848-60.848-60.848z" fill="#99e6fc"/><path d="m384.77 225.84c-14.153-18.344-21.787-40.88-21.787-64.05v-85.526h-190.247v85.526c0 15.42-3.4 30.551-9.834 44.361 8.295-5.848 19.828-5.082 27.249 2.339 8.301 8.301 8.301 21.759 0 30.06l-32.839 32.839h31.826c3.619 0 6.441 3.133 6.064 6.732l-23.685 226.379h207.527c30.68-35.973 49.793-86.68 49.793-142.867 0-52.601-16.755-100.393-44.067-135.793z" fill="#c8effe"/><g><path d="m189.308 207.728c5.51-14.612 8.428-30.209 8.428-45.938h16.162v-85.526h-41.163v85.526c0 15.42-3.4 30.551-9.834 44.361 7.993-5.635 18.977-5.107 26.407 1.577z" fill="#99e6fc"/></g><path d="m364.976 241.111c-17.406-22.562-26.993-50.732-26.993-79.322h-140.246c0 15.73-2.918 31.327-8.428 45.938.281.253.572.491.843.762 8.301 8.301 8.301 21.759 0 30.06l-32.839 32.839h31.826c3.619 0 6.441 3.133 6.064 6.732l-21.071 201.38h192.853c23.526-31.877 36.852-74.174 36.852-117.867 0-45.239-13.801-88.042-38.861-120.522z" fill="#fff3de"/><g fill="#ffe5c2"><path d="m174.132 479.5h35.763c-13.137-17.8-23.089-38.85-29.321-61.577z"/><path d="m197.737 161.79c0 15.73-2.918 31.327-8.428 45.938.281.253.572.491.843.762 8.301 8.301 8.301 21.759 0 30.06l-32.839 32.839h31.826c1.321 0 2.533.421 3.525 1.126 5.383-11.236 11.813-21.776 19.241-31.403 17.408-22.563 26.995-50.732 26.995-79.322z"/></g><path d="m59.194 271.388h98.118l32.839-32.839c8.301-8.301 8.301-21.759 0-30.06s-21.759-8.301-30.06 0l-31.238 31.238c-11.377 11.377-29.823 11.377-41.201 0l-14.187-14.187c-8.301-8.301-21.759-8.301-30.059 0s-8.301 21.759 0 30.06z" fill="#fff3de"/><path d="m59.194 271.388h31.623l-15.788-15.788c-8.037-8.037-8.268-20.894-.742-29.239l-.821-.821c-8.301-8.301-21.759-8.301-30.06 0s-8.301 21.759 0 30.06z" fill="#ffe5c2"/><g><path d="m171.517 504.5h-114.021c-3.122 0-5.74-2.358-6.065-5.463l-23.114-220.916c-.377-3.599 2.446-6.732 6.065-6.732h154.757c3.619 0 6.441 3.133 6.065 6.732z" fill="#c8effe"/></g><path d="m93.194 499.037-2.044-19.537h-16.626l-19.16-183.112h16.626l-1.911-18.268c-.377-3.599 2.446-6.732 6.064-6.732h-41.762c-3.619 0-6.441 3.133-6.065 6.732l23.115 220.916c.325 3.105 2.943 5.463 6.064 5.463h41.763c-3.121.001-5.739-2.357-6.064-5.462z" fill="#99e6fc"/><g><path d="m74.524 479.5-19.16-183.112h112.791l-19.159 183.112z" fill="#fff3de"/></g><g><path d="m55.364 296.388 19.16 183.112h31.634l-19.159-183.112z" fill="#ffe5c2"/></g><g><circle cx="110.902" cy="196.097" fill="#fff3de" r="18.903"/></g><g><path d="m109.194 196.097c0-7.34 4.192-13.689 10.305-16.82-2.581-1.322-5.498-2.083-8.597-2.083-10.44 0-18.903 8.463-18.903 18.903s8.463 18.903 18.903 18.903c3.099 0 6.016-.76 8.597-2.083-6.113-3.131-10.305-9.479-10.305-16.82z" fill="#ffe5c2"/></g><g><circle cx="54.499" cy="171.5" fill="#fff3de" r="12.5"/></g><g><path d="m52.999 171.5c0-4.927 2.858-9.176 7-11.212-1.661-.817-3.524-1.288-5.5-1.288-6.904 0-12.5 5.596-12.5 12.5s5.596 12.5 12.5 12.5c1.976 0 3.839-.471 5.5-1.288-4.142-2.036-7-6.285-7-11.212z" fill="#ffe5c2"/></g><g><path d="m422.868 115.106h-52.386v-37.24l12.469-27.815c1.626-3.624 1.456-7.694-.466-11.169-1.921-3.476-5.279-5.785-9.212-6.335l-53.206-7.449c-4.093-.572-7.893 2.285-8.468 6.388-.574 4.102 2.286 7.893 6.388 8.468l49.92 6.989-9.782 21.823h-182.284l-33.411-33.412v-19.979l140.706 19.699c4.091.57 7.893-2.286 8.468-6.388.574-4.103-2.286-7.894-6.388-8.468l-143.544-20.095c-3.587-.507-7.209.572-9.941 2.949s-4.3 5.816-4.3 9.438v23.876c0 3.342 1.302 6.483 3.663 8.844l34.143 34.143v82.417c0 13.646-2.92 27.156-8.396 39.537-.706.582-1.393 1.2-2.053 1.86l-31.238 31.238c-4.086 4.086-9.518 6.336-15.297 6.336-5.778 0-11.21-2.25-15.297-6.336l-14.187-14.187c-5.431-5.431-12.652-8.422-20.333-8.422s-14.902 2.991-20.334 8.422c-11.21 11.212-11.21 29.454.001 40.666l2.984 2.984h-6.706c-3.846 0-7.527 1.639-10.102 4.496-2.574 2.857-3.822 6.69-3.422 10.517l23.114 220.917c.728 6.945 6.542 12.182 13.525 12.182h321.547c2.196 0 4.281-.962 5.706-2.633 30.586-35.862 48.525-83.107 51.22-134.215 31.437-6.13 55.247-33.845 55.247-67.048v-124.65c0-37.687-30.66-68.348-68.348-68.348zm-374.159 115.738c2.598-2.598 6.052-4.029 9.727-4.029 3.674 0 7.128 1.431 9.727 4.029l14.187 14.187c6.919 6.919 16.118 10.73 25.903 10.73s18.985-3.811 25.904-10.73l31.238-31.238c5.362-5.363 14.088-5.364 19.452 0 5.363 5.363 5.363 14.09 0 19.453l-30.642 30.642h-91.905l-13.591-13.59c-5.363-5.364-5.363-14.09 0-19.454zm149.191-24.862c4.009-11.814 6.436-24.174 7.128-36.692h125.662c1.528 27.632 11.458 54.512 28.347 76.403h.001c24.053 31.174 37.299 72.349 37.299 115.94 0 40.843-11.763 79.872-33.192 110.367h-180.687l20.203-193.098c.401-3.826-.846-7.659-3.42-10.517s-6.257-4.497-10.104-4.497h-13.719l20.036-20.036c10.323-10.322 11.133-26.603 2.446-37.87zm-139.141 291.018-22.821-218.112h151.644l-22.821 218.112zm316.781 0h-195.698l1.046-10h186.097c2.381 0 4.621-1.13 6.034-3.046 24.709-33.48 38.317-76.921 38.317-122.32 0-46.889-14.355-91.318-40.424-125.104h.001c-16.4-21.256-25.432-47.8-25.432-74.74 0-4.142-3.357-7.5-7.5-7.5h-140.244c-4.143 0-7.5 3.358-7.5 7.5 0 11.812-1.757 23.541-5.095 34.787-3.18-1.177-6.525-1.779-9.875-1.795 3.264-10.643 4.971-21.779 4.971-32.992v-78.026h175.246v78.025c0 24.743 8.292 49.116 23.349 68.632 27.41 35.526 42.506 82.125 42.506 131.212-.002 51.434-16.241 99.354-45.799 135.367zm100.676-188.897c0 24.77-16.973 45.64-39.897 51.616-.057-7.511-.436-14.969-1.15-22.344 11.421-4.817 19.462-16.12 19.462-29.273v-47.102c0-4.142-3.357-7.5-7.5-7.5s-7.5 3.358-7.5 7.5v47.103c0 5.398-2.576 10.193-6.552 13.257-6.095-37.296-20.614-71.903-42.37-100.102-12.047-15.614-19.081-34.825-20.086-54.566h52.246c9.243 0 16.763 7.519 16.763 16.762v42.546c0 4.142 3.357 7.5 7.5 7.5s7.5-3.358 7.5-7.5v-42.546c0-17.514-14.249-31.762-31.763-31.762h-52.385v-21.586h52.386c29.416 0 53.348 23.932 53.348 53.348v124.649z"/><path d="m157.563 397.629c4.121.421 7.809-2.56 8.239-6.679l9.812-93.782c.222-2.113-.465-4.221-1.887-5.8s-3.447-2.48-5.572-2.48h-112.791c-2.125 0-4.15.901-5.572 2.48-1.423 1.579-2.108 3.687-1.887 5.8l19.16 183.112c.399 3.819 3.619 6.72 7.459 6.72h74.473c3.84 0 7.06-2.9 7.459-6.72l5.704-54.516c.432-4.12-2.559-7.809-6.679-8.24-4.119-.424-7.808 2.56-8.239 6.679l-5.002 47.797h-60.96l-17.59-168.112h96.14l-8.945 85.501c-.433 4.12 2.558 7.809 6.678 8.24z"/><path d="m110.902 222.5c14.559 0 26.403-11.844 26.403-26.403 0-14.558-11.845-26.402-26.403-26.402s-26.402 11.844-26.402 26.402c-.001 14.559 11.843 26.403 26.402 26.403zm0-37.805c6.288 0 11.403 5.115 11.403 11.402 0 6.288-5.115 11.403-11.403 11.403-6.287 0-11.402-5.115-11.402-11.403-.001-6.287 5.114-11.402 11.402-11.402z"/><path d="m54.499 191.5c11.028 0 20-8.972 20-20s-8.972-20-20-20-20 8.972-20 20 8.972 20 20 20zm0-25c2.757 0 5 2.243 5 5s-2.243 5-5 5-5-2.243-5-5 2.243-5 5-5z"/></g></g></svg>