<svg id="Capa_1" enable-background="new 0 0 512 512" height="512" viewBox="0 0 512 512" width="512" xmlns="http://www.w3.org/2000/svg"><g><g><path d="m294.308 296.233c-3.457-23.902 1.807-48.317 14.688-68.134l30.955-47.625h-167.878l30.955 47.625c12.881 19.817 18.144 44.232 14.688 68.134l-17.396 120.296c-1.327 9.175-.662 18.119 1.595 26.388.847.46 1.674.937 2.505 1.411 12.419-3.966 26.161-6.176 40.626-6.176 23.082 0 44.329 5.618 61.276 15.047 5.116-10.874 7.279-23.538 5.381-36.67z" fill="#fff3de"/><path d="m213.987 180.474h-41.914l30.955 47.625c12.881 19.817 18.144 44.232 14.688 68.134l-17.396 120.296c-1.327 9.175-.662 18.119 1.595 26.388.847.46 1.674.937 2.505 1.411 11.752-3.752 24.693-5.918 38.306-6.141-1.333-6.909-1.569-14.208-.492-21.658l17.395-120.296c3.456-23.902-1.807-48.317-14.687-68.134z" fill="#ffe5c2"/><g><path d="m256.011 22.121c-79.532 0-145.455 58.264-157.416 134.436-2.059 13.112 8.249 24.917 21.522 24.917h271.789c13.273 0 23.581-11.805 21.522-24.917-11.961-76.172-77.885-134.436-157.417-134.436z" fill="#a44f3e"/></g><g><path d="m150.916 156.557c10.621-67.638 63.792-121.15 131.256-132.293-8.512-1.406-17.25-2.143-26.161-2.143-79.532 0-145.455 58.264-157.416 134.436-2.059 13.112 8.249 24.917 21.522 24.917h52.321c-13.273 0-23.581-11.805-21.522-24.917z" fill="#883f2e"/></g></g><g><g><path d="m121.607 357.585c-2.015-12.941 1.054-26.161 8.565-36.89l9.506-13.58h-80.806l9.506 13.58c7.511 10.729 10.58 23.949 8.565 36.89l-10.143 65.132c-.655 4.204-.477 8.32.387 12.201 17.515-6.592 37.432-10.332 58.571-10.332 2.093 0 4.17.047 6.238.12-.063-.661-.142-1.324-.246-1.989z" fill="#fff3de"/><path d="m76.943 357.585-10.143 65.132c-.655 4.204-.477 8.32.387 12.201 6.406-2.411 13.128-4.447 20.12-6.05-.063-2.017.056-4.074.38-6.151l10.144-65.132c2.016-12.941-1.054-26.161-8.565-36.89l-9.506-13.58h-20.888l9.506 13.58c7.512 10.73 10.581 23.949 8.565 36.89z" fill="#ffe5c2"/><g><path d="m99.275 224.966c-37.782 0-69.606 25.505-79.195 60.237-3.045 11.028 5.334 21.913 16.774 21.913h124.841c11.441 0 19.819-10.884 16.774-21.913-9.588-34.732-41.412-60.237-79.194-60.237z" fill="#a44f3e"/></g><g><path d="m61.991 285.203c7.75-28.073 30.031-50.111 58.24-57.532-6.691-1.76-13.712-2.705-20.956-2.705-37.781 0-69.606 25.505-79.195 60.237-3.045 11.028 5.334 21.913 16.774 21.913h41.911c-11.44 0-19.819-10.885-16.774-21.913z" fill="#883f2e"/></g></g><path d="m204.42 444.329c-21.603-12.35-48.924-19.742-78.662-19.742-53.271 0-98.835 23.676-117.541 57.197-2.024 3.627.538 8.095 4.692 8.095h135.921c8.371-20.4 28.921-37.035 55.59-45.55z" fill="#ffbd86"/><g><path d="m50.021 481.784c16.21-29.05 52.598-50.693 96.686-55.953-6.814-.817-13.812-1.243-20.948-1.243-53.271 0-98.835 23.676-117.541 57.197-2.024 3.627.538 8.095 4.692 8.095h41.803c-4.155-.001-6.717-4.469-4.692-8.096z" fill="#f6a96c"/></g></g><g><g><path d="m432.331 435.047v-46.802h-42.162v43.481c2.941-.165 5.91-.257 8.91-.257 11.573 0 22.736 1.256 33.252 3.578z" fill="#fff3de"/><path d="m410.989 431.926v-43.682h-20.82v43.481c2.941-.165 5.91-.257 8.91-.257 4.024.001 7.994.164 11.91.458z" fill="#ffe5c2"/><g><path d="m411.25 306.095c-33.083 0-60.839 26.588-68.412 62.437-2.142 10.141 5.477 19.713 15.841 19.713h105.141c10.364 0 17.983-9.572 15.841-19.713-7.572-35.85-35.329-62.437-68.411-62.437z" fill="#a44f3e"/></g><g><path d="m385.351 368.532c5.876-27.82 23.912-50.054 47.155-58.621-6.708-2.473-13.847-3.816-21.257-3.816-33.083 0-60.839 26.588-68.412 62.437-2.142 10.141 5.477 19.713 15.841 19.713h42.513c-10.363 0-17.982-9.573-15.84-19.713z" fill="#883f2e"/></g></g><path d="m503.777 481.839c-17.007-29.565-57.467-50.37-104.699-50.37-33.454 0-63.501 10.443-84.233 27.038 12.235 8.537 21.462 19.294 26.418 31.372h157.791c4.125 0 6.78-4.464 4.723-8.04z" fill="#f6a96c"/></g><g><path d="m341.263 489.879c-12.269-29.899-50.69-51.726-96.216-51.726s-83.947 21.827-96.216 51.726z" fill="#ffbd86"/></g><g><path d="m265.921 439.72c-6.733-1.026-13.715-1.567-20.874-1.567-45.526 0-83.947 21.827-96.216 51.726h41.749c10.339-25.198 39.253-44.661 75.341-50.159z" fill="#f6a96c"/></g><g><path d="m261.146 55.702h-16.216c-4.143 0-7.5 3.358-7.5 7.5s3.357 7.5 7.5 7.5h16.216c4.143 0 7.5-3.358 7.5-7.5s-3.357-7.5-7.5-7.5z"/><path d="m188.713 88.135h-16.216c-4.143 0-7.5 3.358-7.5 7.5s3.357 7.5 7.5 7.5h16.216c4.143 0 7.5-3.358 7.5-7.5s-3.357-7.5-7.5-7.5z"/><path d="m311.958 108.54h16.216c4.143 0 7.5-3.358 7.5-7.5s-3.357-7.5-7.5-7.5h-16.216c-4.143 0-7.5 3.358-7.5 7.5s3.357 7.5 7.5 7.5z"/><path d="m354.12 149.622h16.216c4.143 0 7.5-3.358 7.5-7.5s-3.357-7.5-7.5-7.5h-16.216c-4.143 0-7.5 3.358-7.5 7.5s3.357 7.5 7.5 7.5z"/><path d="m162.768 134.622h-16.217c-4.143 0-7.5 3.358-7.5 7.5s3.357 7.5 7.5 7.5h16.217c4.143 0 7.5-3.358 7.5-7.5s-3.357-7.5-7.5-7.5z"/><path d="m257.903 111.919h-16.216c-4.143 0-7.5 3.358-7.5 7.5s3.357 7.5 7.5 7.5h16.216c4.143 0 7.5-3.358 7.5-7.5s-3.358-7.5-7.5-7.5z"/><path d="m510.278 478.099c-13.403-23.301-39.232-40.747-70.447-48.944v-33.411h23.989c7.167 0 13.864-3.191 18.375-8.754 4.554-5.615 6.305-12.908 4.805-20.008-8.505-40.266-39.654-68.387-75.75-68.387s-67.245 28.122-75.75 68.387c-1.5 7.101.251 14.393 4.805 20.008 4.511 5.563 11.209 8.754 18.375 8.754h23.989v29.044c-20.129 1.991-39.103 7.634-55.593 16.642-3.742 2.044-7.302 4.257-10.682 6.607 3.347-10.384 4.326-21.558 2.732-32.582l-17.396-120.295c-3.213-22.219 1.601-44.584 13.553-62.974l28.087-43.213h48.536c8.589 0 16.719-3.746 22.305-10.277 5.522-6.457 7.938-14.95 6.626-23.303-6.101-38.851-25.945-74.471-55.879-100.298-30.251-26.101-68.941-40.475-108.946-40.475s-78.695 14.375-108.946 40.475c-29.934 25.827-49.778 61.447-55.879 100.298-1.312 8.352 1.104 16.845 6.626 23.302 5.586 6.531 13.716 10.277 22.305 10.277h48.536l28.087 43.213c11.952 18.39 16.766 40.754 13.553 62.974l-17.396 120.296c-.7 4.84-.899 9.708-.623 14.526-16.491-6.93-34.7-11.136-53.739-12.442l-9.518-61.109c-1.726-11.082.866-22.246 7.299-31.435l7.267-10.381h18.113c7.845 0 15.07-3.582 19.825-9.827 4.728-6.21 6.251-14.076 4.179-21.581-2.414-8.745-6.167-17.081-11.154-24.777-2.252-3.476-6.897-4.468-10.372-2.215-3.477 2.252-4.469 6.896-2.216 10.373 4.153 6.41 7.276 13.344 9.283 20.612.814 2.952.212 6.051-1.655 8.502-1.894 2.487-4.769 3.914-7.89 3.914h-124.843c-3.121 0-5.996-1.426-7.89-3.914-1.867-2.452-2.47-5.551-1.655-8.502 8.897-32.226 38.49-54.733 71.966-54.733 14.262 0 28.132 4.044 40.111 11.694 3.49 2.229 8.129 1.207 10.358-2.284s1.206-8.128-2.284-10.357c-14.396-9.193-31.058-14.052-48.186-14.052-40.199 0-75.738 27.034-86.425 65.741-2.072 7.505-.549 15.371 4.179 21.581 4.755 6.245 11.98 9.827 19.825 9.827h18.113l7.267 10.381c6.433 9.189 9.024 20.353 7.298 31.435l-10.144 65.132c-.442 2.837-.567 5.682-.405 8.494-25.318 10.631-45.719 27.289-57.316 48.073-2.27 4.068-2.22 8.889.133 12.895 2.336 3.979 6.489 6.354 11.109 6.354h392.079c4.143 0 7.5-3.358 7.5-7.5s-3.357-7.5-7.5-7.5h-58.94c-4.341-8.582-10.705-16.582-18.706-23.579 19.141-12.393 44.573-19.831 71.736-19.831 41.708 0 78.958 16.925 96.234 43.41h-55.324c-4.143 0-7.5 3.358-7.5 7.5s3.357 7.5 7.5 7.5h59.064c4.6 0 8.891-2.478 11.197-6.466 2.326-4.017 2.336-8.808.03-12.815zm-302.535-60.496 17.396-120.296c3.733-25.822-1.886-51.852-15.822-73.295l-22.773-35.038h77.469c4.143 0 7.5-3.358 7.5-7.5s-3.357-7.5-7.5-7.5h-143.896c-4.198 0-8.174-1.832-10.905-5.026-2.708-3.166-3.847-7.153-3.207-11.226 5.55-35.346 23.612-67.759 50.859-91.268 27.528-23.751 62.739-36.832 99.147-36.832s71.619 13.081 99.147 36.832c27.247 23.509 45.31 55.922 50.859 91.268.64 4.074-.499 8.061-3.207 11.227-2.731 3.194-6.707 5.026-10.905 5.026h-92.895c-4.143 0-7.5 3.358-7.5 7.5s3.357 7.5 7.5 7.5h26.469l-22.773 35.039c-13.937 21.442-19.556 47.472-15.822 73.294l17.396 120.296c1.231 8.515.529 17.126-1.949 25.152-6.747-3.127-13.889-5.657-21.32-7.589v-52.167c0-4.142-3.357-7.5-7.5-7.5s-7.5 3.358-7.5 7.5v49.145c-6.527-.94-13.213-1.435-20-1.479v-47.666c0-4.142-3.357-7.5-7.5-7.5s-7.5 3.358-7.5 7.5v48.324c-7.911.75-15.625 2.134-23.042 4.13-.985-5.842-1.091-11.869-.226-17.851zm-82.471-102.988-1.245 1.779c-8.664 12.378-12.156 27.416-9.831 42.345l9.092 58.381c-17.254.228-33.871 2.838-49.161 7.492.031-.247.045-.495.083-.742l10.144-65.132c2.325-14.929-1.167-29.967-9.831-42.345l-1.245-1.779h51.994zm18.772 167.764h-127.471c8.762-14.054 22.787-26.121 40.784-35.044 20.118-9.975 43.771-15.248 68.401-15.248 21.604 0 42.243 4.194 60.106 11.581-1.688.819-3.359 1.661-4.993 2.554-16.691 9.118-29.58 21.83-36.827 36.157zm184.616 0h-167.227c15.316-22.068 47.769-36.726 83.613-36.726s68.298 14.658 83.614 36.726zm30.019-101.634c-2.662 0-5.05-1.137-6.725-3.202-1.691-2.086-2.34-4.806-1.779-7.461 7.025-33.258 32.14-56.487 61.074-56.487s54.049 23.229 61.074 56.487c.561 2.656-.088 5.375-1.779 7.461-1.674 2.064-4.063 3.202-6.725 3.202zm66.152 45.258c-8.345-1.33-16.965-2.034-25.752-2.034-.472 0-.939.016-1.41.02v-28.244h27.162z"/></g></g></svg>